<svg width="32" height="32" viewBox="0 0 32 32" fill="none" xmlns="http://www.w3.org/2000/svg">
<g opacity="0.64">
<path d="M17.3347 26.584C22.5964 25.9278 26.668 21.4393 26.668 15.9998C26.668 10.1088 21.8924 5.33317 16.0013 5.33317C10.1103 5.33317 5.33464 10.1088 5.33464 15.9998C5.33464 21.4393 9.40622 25.9278 14.668 26.584V18.6665H12.0013V15.9998H14.668V13.7942C14.668 12.0112 14.8536 11.3647 15.2023 10.7128C15.5508 10.061 16.0624 9.54938 16.7143 9.20077C17.2245 8.92789 17.8575 8.7632 18.9636 8.69256C19.4025 8.66452 19.9708 8.70028 20.668 8.79984V11.3332H20.0013C18.7783 11.3332 18.2736 11.3909 17.9719 11.5523C17.7848 11.6524 17.6539 11.7833 17.5537 11.9704C17.3924 12.2721 17.3347 12.5712 17.3347 13.7942V15.9998H20.668L20.0013 18.6665H17.3347V26.584ZM16.0013 29.3332C8.6375 29.3332 2.66797 23.3636 2.66797 15.9998C2.66797 8.63604 8.6375 2.6665 16.0013 2.6665C23.3651 2.6665 29.3347 8.63604 29.3347 15.9998C29.3347 23.3636 23.3651 29.3332 16.0013 29.3332Z" fill="black"/>
</g>
</svg>
