<svg width="32" height="32" viewBox="0 0 32 32" fill="none" xmlns="http://www.w3.org/2000/svg">
<g opacity="0.64">
<path d="M16.0013 11.9998C13.7915 11.9998 12.0013 13.7906 12.0013 15.9998C12.0013 18.2096 13.7921 19.9998 16.0013 19.9998C18.2111 19.9998 20.0013 18.209 20.0013 15.9998C20.0013 13.7901 18.2105 11.9998 16.0013 11.9998ZM16.0013 9.33317C19.6819 9.33317 22.668 12.316 22.668 15.9998C22.668 19.6805 19.6852 22.6665 16.0013 22.6665C12.3207 22.6665 9.33464 19.6837 9.33464 15.9998C9.33464 12.3192 12.3174 9.33317 16.0013 9.33317ZM24.668 8.9987C24.668 9.91885 23.9203 10.6654 23.0013 10.6654C22.0812 10.6654 21.3347 9.9177 21.3347 8.9987C21.3347 8.0797 22.0823 7.33317 23.0013 7.33317C23.9191 7.33201 24.668 8.0797 24.668 8.9987ZM16.0013 5.33317C12.702 5.33317 12.1642 5.3419 10.6297 5.41024C9.5842 5.45932 8.88337 5.59993 8.23221 5.85273C7.65354 6.07716 7.23612 6.34514 6.79136 6.7899C6.34489 7.23637 6.07738 7.65268 5.85386 8.23161C5.60048 8.88426 5.4599 9.58398 5.4117 10.628C5.3427 12.1001 5.33464 12.6146 5.33464 15.9998C5.33464 19.2992 5.34337 19.8369 5.41169 21.3713C5.4608 22.4164 5.6016 23.1182 5.85378 23.7678C6.0788 24.3473 6.34733 24.7657 6.78994 25.2084C7.23817 25.656 7.65572 25.9244 8.22916 26.1457C8.88825 26.4005 9.58864 26.5413 10.6295 26.5894C12.1016 26.6584 12.616 26.6665 16.0013 26.6665C19.3007 26.6665 19.8384 26.6577 21.3728 26.5894C22.4156 26.5405 23.118 26.3993 23.7693 26.1473C24.3472 25.9229 24.7669 25.6534 25.2099 25.2112C25.6581 24.7622 25.926 24.3457 26.1476 23.7709C26.4017 23.1142 26.5428 22.4129 26.5909 21.3717C26.6599 19.8996 26.668 19.385 26.668 15.9998C26.668 12.7005 26.6592 12.1628 26.5909 10.6283C26.5419 9.58525 26.4007 8.88182 26.1484 8.23074C25.9245 7.65368 25.6556 7.23497 25.2112 6.7899C24.764 6.3427 24.3488 6.07574 23.7695 5.8524C23.1173 5.59922 22.4165 5.45845 21.3731 5.41025C19.9011 5.34124 19.3865 5.33317 16.0013 5.33317ZM16.0013 2.6665C19.6235 2.6665 20.0757 2.67984 21.498 2.7465C22.9168 2.81206 23.8847 3.0365 24.7347 3.3665C25.6135 3.7054 26.3557 4.16317 27.0968 4.90428C27.8368 5.6454 28.2947 6.38984 28.6347 7.2665C28.9635 8.1154 29.188 9.08428 29.2547 10.5032C29.318 11.9254 29.3347 12.3776 29.3347 15.9998C29.3347 19.6221 29.3213 20.0742 29.2547 21.4965C29.1891 22.9154 28.9635 23.8832 28.6347 24.7332C28.2957 25.6121 27.8368 26.3542 27.0968 27.0954C26.3557 27.8354 25.6101 28.2932 24.7347 28.6332C23.8847 28.9621 22.9168 29.1865 21.498 29.2532C20.0757 29.3165 19.6235 29.3332 16.0013 29.3332C12.3791 29.3332 11.9268 29.3198 10.5046 29.2532C9.08574 29.1876 8.11908 28.9621 7.26797 28.6332C6.39018 28.2942 5.64685 27.8354 4.90574 27.0954C4.16464 26.3542 3.70797 25.6088 3.36797 24.7332C3.03797 23.8832 2.81464 22.9154 2.74797 21.4965C2.68464 20.0742 2.66797 19.6221 2.66797 15.9998C2.66797 12.3776 2.6813 11.9254 2.74797 10.5032C2.81352 9.08317 3.03797 8.1165 3.36797 7.2665C3.70685 6.38873 4.16464 5.6454 4.90574 4.90428C5.64685 4.16317 6.3913 3.7065 7.26797 3.3665C8.11797 3.0365 9.08464 2.81317 10.5046 2.7465C11.9268 2.68317 12.3791 2.6665 16.0013 2.6665Z" fill="black"/>
</g>
</svg>
