<svg width="32" height="32" viewBox="0 0 32 32" fill="none" xmlns="http://www.w3.org/2000/svg">
<g opacity="0.64">
<path d="M9.25381 6.66641C9.25332 7.75216 8.59461 8.7292 7.58829 9.13681C6.58197 9.54444 5.429 9.30124 4.67304 8.5219C3.91708 7.74256 3.7091 6.5827 4.14717 5.58926C4.58525 4.59582 5.58189 3.96717 6.66714 3.99974C8.10857 4.04301 9.25446 5.22433 9.25381 6.66641ZM9.33381 11.3064H4.00048V27.9997H9.33381V11.3064ZM17.7605 11.3064H12.4538V27.9997H17.7072V19.2397C17.7072 14.3597 24.0672 13.9064 24.0672 19.2397V27.9997H29.3338V17.4264C29.3338 9.19974 19.9205 9.50641 17.7072 13.5464L17.7605 11.3064Z" fill="black"/>
</g>
</svg>
