<svg width="70" height="20" viewBox="0 0 70 20" fill="none" xmlns="http://www.w3.org/2000/svg">
<g clip-path="url(#clip0_6_11)">
<path d="M62 0H8C3.58172 0 0 3.58172 0 8V12C0 16.4183 3.58172 20 8 20H62C66.4183 20 70 16.4183 70 12V8C70 3.58172 66.4183 0 62 0Z" fill="#FFCC00"/>
<path d="M54.0327 16.8168C53.4446 16.8168 52.9404 16.7358 52.5199 16.5739C52.1023 16.4148 51.7699 16.1974 51.5228 15.9219C51.2756 15.6463 51.1151 15.3366 51.0412 14.9929L52.7202 14.767C52.7713 14.8977 52.8523 15.0199 52.9631 15.1335C53.0739 15.2472 53.2202 15.3381 53.402 15.4063C53.5867 15.4773 53.8111 15.5128 54.0753 15.5128C54.4702 15.5128 54.7955 15.4162 55.0512 15.223C55.3097 15.0327 55.439 14.7131 55.439 14.2642V13.0668H55.3623C55.2827 13.2486 55.1634 13.4205 55.0043 13.5824C54.8452 13.7443 54.6407 13.8764 54.3907 13.9787C54.1407 14.081 53.8424 14.1321 53.4958 14.1321C53.0043 14.1321 52.5569 14.0185 52.1534 13.7912C51.7529 13.5611 51.4333 13.2102 51.1946 12.7386C50.9588 12.2642 50.8409 11.6648 50.8409 10.9403C50.8409 10.1989 50.9617 9.57955 51.2032 9.08239C51.4446 8.58523 51.7657 8.21307 52.1662 7.96591C52.5696 7.71875 53.0114 7.59517 53.4915 7.59517C53.858 7.59517 54.1648 7.65767 54.412 7.78267C54.6591 7.90483 54.858 8.05824 55.0086 8.2429C55.162 8.42472 55.2799 8.60369 55.3623 8.77983H55.4304V7.6804H57.233V14.2898C57.233 14.8466 57.0966 15.3125 56.8239 15.6875C56.5512 16.0625 56.1733 16.3438 55.6904 16.5313C55.2103 16.7216 54.6577 16.8168 54.0327 16.8168ZM54.0711 12.7685C54.3637 12.7685 54.6108 12.696 54.8125 12.5511C55.0171 12.4034 55.1733 12.1932 55.2813 11.9205C55.3921 11.6449 55.4475 11.3153 55.4475 10.9318C55.4475 10.5483 55.3935 10.2159 55.2855 9.93466C55.1776 9.65057 55.0213 9.4304 54.8168 9.27415C54.6122 9.1179 54.3637 9.03977 54.0711 9.03977C53.7728 9.03977 53.5213 9.12074 53.3168 9.28267C53.1122 9.44176 52.9574 9.66335 52.8523 9.94744C52.7472 10.2315 52.6946 10.5597 52.6946 10.9318C52.6946 11.3097 52.7472 11.6364 52.8523 11.9119C52.9603 12.1847 53.1151 12.3963 53.3168 12.5469C53.5213 12.6946 53.7728 12.7685 54.0711 12.7685Z" fill="#3B3000"/>
<path d="M45.4342 10.4418V14.2259H43.6189V7.6804H45.349V8.83523H45.4257C45.5706 8.45455 45.8135 8.15341 46.1544 7.93182C46.4953 7.70739 46.9087 7.59517 47.3945 7.59517C47.849 7.59517 48.2453 7.6946 48.5834 7.89347C48.9215 8.09233 49.1842 8.37642 49.3717 8.74574C49.5592 9.11222 49.653 9.54972 49.653 10.0582V14.2259H47.8376V10.3821C47.8405 9.98153 47.7382 9.66903 47.5308 9.4446C47.3234 9.21733 47.0379 9.10369 46.6743 9.10369C46.43 9.10369 46.2141 9.15625 46.0266 9.26136C45.8419 9.36648 45.697 9.51989 45.5919 9.72159C45.4896 9.92046 45.4371 10.1605 45.4342 10.4418Z" fill="#3B3000"/>
<path d="M40.3494 14.2259V7.6804H42.1648V14.2259H40.3494ZM41.2614 6.83665C40.9915 6.83665 40.7599 6.74716 40.5668 6.56818C40.3764 6.38636 40.2812 6.16903 40.2812 5.91619C40.2812 5.66619 40.3764 5.4517 40.5668 5.27273C40.7599 5.09091 40.9915 5 41.2614 5C41.5313 5 41.7614 5.09091 41.9517 5.27273C42.1449 5.4517 42.2415 5.66619 42.2415 5.91619C42.2415 6.16903 42.1449 6.38636 41.9517 6.56818C41.7614 6.74716 41.5313 6.83665 41.2614 6.83665Z" fill="#3B3000"/>
<path d="M39.1669 7.6804V9.04404H35.2251V7.6804H39.1669ZM36.12 6.11222H37.9353V12.2145C37.9353 12.3821 37.9609 12.5128 38.012 12.6065C38.0632 12.6974 38.1342 12.7614 38.2251 12.7983C38.3188 12.8352 38.4268 12.8537 38.549 12.8537C38.6342 12.8537 38.7194 12.8466 38.8046 12.8324C38.8899 12.8153 38.9552 12.8026 39.0007 12.794L39.2862 14.1449C39.1953 14.1733 39.0674 14.206 38.9027 14.2429C38.7379 14.2827 38.5376 14.3068 38.3018 14.3153C37.8643 14.3324 37.4808 14.2741 37.1512 14.1406C36.8245 14.0071 36.5703 13.7997 36.3885 13.5185C36.2066 13.2372 36.1171 12.8821 36.12 12.4531V6.11222Z" fill="#3B3000"/>
<path d="M32.4158 14.2259V7.6804H34.2312V14.2259H32.4158ZM33.3278 6.83665C33.0579 6.83665 32.8263 6.74716 32.6332 6.56818C32.4428 6.38636 32.3477 6.16903 32.3477 5.91619C32.3477 5.66619 32.4428 5.4517 32.6332 5.27273C32.8263 5.09091 33.0579 5 33.3278 5C33.5977 5 33.8278 5.09091 34.0181 5.27273C34.2113 5.4517 34.3079 5.66619 34.3079 5.91619C34.3079 6.16903 34.2113 6.38636 34.0181 6.56818C33.8278 6.74716 33.5977 6.83665 33.3278 6.83665Z" fill="#3B3000"/>
<path d="M27.3214 14.3494C26.9038 14.3494 26.5316 14.277 26.2049 14.1321C25.8782 13.9844 25.6197 13.767 25.4293 13.4801C25.2418 13.1903 25.1481 12.8295 25.1481 12.3977C25.1481 12.0341 25.2148 11.7287 25.3484 11.4815C25.4819 11.2344 25.6637 11.0355 25.8938 10.8849C26.1239 10.7344 26.3853 10.6207 26.6779 10.544C26.9734 10.4673 27.283 10.4134 27.6069 10.3821C27.9876 10.3423 28.2944 10.3054 28.5273 10.2713C28.7603 10.2344 28.9293 10.1804 29.0344 10.1094C29.1395 10.0384 29.1921 9.93324 29.1921 9.79403V9.76847C29.1921 9.49858 29.1069 9.28977 28.9364 9.14205C28.7688 8.99432 28.5302 8.92045 28.2205 8.92045C27.8938 8.92045 27.6339 8.9929 27.4407 9.13778C27.2475 9.27983 27.1197 9.45881 27.0572 9.67472L25.3782 9.53835C25.4634 9.14063 25.631 8.79688 25.881 8.5071C26.131 8.21449 26.4535 7.99006 26.8484 7.83381C27.2461 7.67472 27.7063 7.59517 28.229 7.59517C28.5927 7.59517 28.9407 7.63778 29.2731 7.72301C29.6083 7.80824 29.9052 7.94034 30.1637 8.11932C30.4251 8.2983 30.631 8.52841 30.7816 8.80966C30.9322 9.08807 31.0074 9.42188 31.0074 9.81108V14.2259H29.2859V13.3182H29.2347C29.1296 13.5227 28.989 13.7031 28.8128 13.8594C28.6367 14.0128 28.4251 14.1335 28.1779 14.2216C27.9307 14.3068 27.6452 14.3494 27.3214 14.3494ZM27.8413 13.0966C28.1083 13.0966 28.3441 13.044 28.5486 12.9389C28.7532 12.831 28.9137 12.6861 29.0302 12.5043C29.1466 12.3224 29.2049 12.1165 29.2049 11.8864V11.1918C29.1481 11.2287 29.0699 11.2628 28.9705 11.294C28.8739 11.3224 28.7645 11.3494 28.6424 11.375C28.5202 11.3977 28.3981 11.419 28.2759 11.4389C28.1538 11.456 28.043 11.4716 27.9435 11.4858C27.7305 11.517 27.5444 11.5668 27.3853 11.6349C27.2262 11.7031 27.1026 11.7955 27.0145 11.9119C26.9265 12.0256 26.8824 12.1676 26.8824 12.3381C26.8824 12.5852 26.9719 12.7741 27.1509 12.9048C27.3327 13.0327 27.5628 13.0966 27.8413 13.0966Z" fill="#3B3000"/>
<path d="M15.723 14.2259L13.2258 5.49858H15.2415L16.6861 11.5625H16.7585L18.3523 5.49858H20.0781L21.6676 11.5753H21.7443L23.1889 5.49858H25.2045L22.7074 14.2259H20.9091L19.2471 8.51989H19.179L17.5213 14.2259H15.723Z" fill="#3B3000"/>
</g>
<defs>
<clipPath id="clip0_6_11">
<rect width="70" height="20" fill="white"/>
</clipPath>
</defs>
</svg>
