<svg width="780" height="441" viewBox="0 0 780 441" fill="none" xmlns="http://www.w3.org/2000/svg">
<g clip-path="url(#clip0_131_1204)">
<path d="M390 441C560.656 441 699 302.656 699 132C699 -38.656 560.656 -177 390 -177C219.344 -177 81 -38.656 81 132C81 302.656 219.344 441 390 441Z" fill="#009810"/>
<path opacity="0.56" d="M390 441C508.741 441 605 344.741 605 226C605 107.259 508.741 11 390 11C271.259 11 175 107.259 175 226C175 344.741 271.259 441 390 441Z" fill="#00800D"/>
<path opacity="0.56" d="M389.5 441C489.187 441 570 360.187 570 260.5C570 160.813 489.187 80 389.5 80C289.813 80 209 160.813 209 260.5C209 360.187 289.813 441 389.5 441Z" fill="#00770D"/>
<path opacity="0.56" d="M389.5 441C468.753 441 533 376.753 533 297.5C533 218.247 468.753 154 389.5 154C310.247 154 246 218.247 246 297.5C246 376.753 310.247 441 389.5 441Z" fill="#006F0C"/>
<path opacity="0.56" d="M390 441C455.722 441 509 387.722 509 322C509 256.278 455.722 203 390 203C324.278 203 271 256.278 271 322C271 387.722 324.278 441 390 441Z" fill="#00660B"/>
</g>
<defs>
<clipPath id="clip0_131_1204">
<rect width="780" height="441" fill="white"/>
</clipPath>
</defs>
</svg>
