<svg width="70" height="35" viewBox="0 0 70 35" fill="none" xmlns="http://www.w3.org/2000/svg">
<path d="M13 20L70 10V35C62.242 21.142 57.1934 25.6438 13 20Z" fill="#201D67"/>
<rect width="70" height="20" rx="8" fill="#201D67"/>
<path opacity="0.8" d="M15.2344 11.4219L16.9277 5.46875H17.748L17.2734 7.7832L15.4512 14H14.6367L15.2344 11.4219ZM13.4824 5.46875L14.8301 11.3047L15.2344 14H14.4258L12.3574 5.46875H13.4824ZM19.9395 11.2988L21.2578 5.46875H22.3887L20.3262 14H19.5176L19.9395 11.2988ZM17.8711 5.46875L19.5176 11.4219L20.1152 14H19.3008L17.543 7.7832L17.0625 5.46875H17.8711ZM23.2539 10.9004V10.7656C23.2539 10.3086 23.3203 9.88477 23.4531 9.49414C23.5859 9.09961 23.7773 8.75781 24.0273 8.46875C24.2773 8.17578 24.5801 7.94922 24.9355 7.78906C25.291 7.625 25.6895 7.54297 26.1309 7.54297C26.5762 7.54297 26.9766 7.625 27.332 7.78906C27.6914 7.94922 27.9961 8.17578 28.2461 8.46875C28.5 8.75781 28.6934 9.09961 28.8262 9.49414C28.959 9.88477 29.0254 10.3086 29.0254 10.7656V10.9004C29.0254 11.3574 28.959 11.7812 28.8262 12.1719C28.6934 12.5625 28.5 12.9043 28.2461 13.1973C27.9961 13.4863 27.6934 13.7129 27.3379 13.877C26.9863 14.0371 26.5879 14.1172 26.1426 14.1172C25.6973 14.1172 25.2969 14.0371 24.9414 13.877C24.5859 13.7129 24.2812 13.4863 24.0273 13.1973C23.7773 12.9043 23.5859 12.5625 23.4531 12.1719C23.3203 11.7812 23.2539 11.3574 23.2539 10.9004ZM24.3379 10.7656V10.9004C24.3379 11.2168 24.375 11.5156 24.4492 11.7969C24.5234 12.0742 24.6348 12.3203 24.7832 12.5352C24.9355 12.75 25.125 12.9199 25.3516 13.0449C25.5781 13.166 25.8418 13.2266 26.1426 13.2266C26.4395 13.2266 26.6992 13.166 26.9219 13.0449C27.1484 12.9199 27.3359 12.75 27.4844 12.5352C27.6328 12.3203 27.7441 12.0742 27.8184 11.7969C27.8965 11.5156 27.9355 11.2168 27.9355 10.9004V10.7656C27.9355 10.4531 27.8965 10.1582 27.8184 9.88086C27.7441 9.59961 27.6309 9.35156 27.4785 9.13672C27.3301 8.91797 27.1426 8.74609 26.916 8.62109C26.6934 8.49609 26.4316 8.43359 26.1309 8.43359C25.834 8.43359 25.5723 8.49609 25.3457 8.62109C25.123 8.74609 24.9355 8.91797 24.7832 9.13672C24.6348 9.35156 24.5234 9.59961 24.4492 9.88086C24.375 10.1582 24.3379 10.4531 24.3379 10.7656ZM31.7188 8.65625V14H30.6348V7.66016H31.6895L31.7188 8.65625ZM33.6992 7.625L33.6934 8.63281C33.6035 8.61328 33.5176 8.60156 33.4355 8.59766C33.3574 8.58984 33.2676 8.58594 33.166 8.58594C32.916 8.58594 32.6953 8.625 32.5039 8.70312C32.3125 8.78125 32.1504 8.89062 32.0176 9.03125C31.8848 9.17188 31.7793 9.33984 31.7012 9.53516C31.627 9.72656 31.5781 9.9375 31.5547 10.168L31.25 10.3438C31.25 9.96094 31.2871 9.60156 31.3613 9.26562C31.4395 8.92969 31.5586 8.63281 31.7188 8.375C31.8789 8.11328 32.082 7.91016 32.3281 7.76562C32.5781 7.61719 32.875 7.54297 33.2188 7.54297C33.2969 7.54297 33.3867 7.55273 33.4883 7.57227C33.5898 7.58789 33.6602 7.60547 33.6992 7.625ZM36.041 5V14H34.9512V5H36.041ZM39.9141 7.66016L37.1484 10.6191L35.6016 12.2246L35.5137 11.0703L36.6211 9.74609L38.5898 7.66016H39.9141ZM38.9238 14L36.6621 10.9766L37.2246 10.0098L40.2012 14H38.9238ZM42.4609 7.66016V14H41.3711V7.66016H42.4609ZM41.2891 5.97852C41.2891 5.80273 41.3418 5.6543 41.4473 5.5332C41.5566 5.41211 41.7168 5.35156 41.9277 5.35156C42.1348 5.35156 42.293 5.41211 42.4023 5.5332C42.5156 5.6543 42.5723 5.80273 42.5723 5.97852C42.5723 6.14648 42.5156 6.29102 42.4023 6.41211C42.293 6.5293 42.1348 6.58789 41.9277 6.58789C41.7168 6.58789 41.5566 6.5293 41.4473 6.41211C41.3418 6.29102 41.2891 6.14648 41.2891 5.97852ZM45.5352 9.01367V14H44.4512V7.66016H45.4766L45.5352 9.01367ZM45.2773 10.5898L44.8262 10.5723C44.8301 10.1387 44.8945 9.73828 45.0195 9.37109C45.1445 9 45.3203 8.67773 45.5469 8.4043C45.7734 8.13086 46.043 7.91992 46.3555 7.77148C46.6719 7.61914 47.0215 7.54297 47.4043 7.54297C47.7168 7.54297 47.998 7.58594 48.248 7.67188C48.498 7.75391 48.7109 7.88672 48.8867 8.07031C49.0664 8.25391 49.2031 8.49219 49.2969 8.78516C49.3906 9.07422 49.4375 9.42773 49.4375 9.8457V14H48.3477V9.83398C48.3477 9.50195 48.2988 9.23633 48.2012 9.03711C48.1035 8.83398 47.9609 8.6875 47.7734 8.59766C47.5859 8.50391 47.3555 8.45703 47.082 8.45703C46.8125 8.45703 46.5664 8.51367 46.3438 8.62695C46.125 8.74023 45.9355 8.89648 45.7754 9.0957C45.6191 9.29492 45.4961 9.52344 45.4062 9.78125C45.3203 10.0352 45.2773 10.3047 45.2773 10.5898ZM55.4414 7.66016H56.4258V13.8652C56.4258 14.4238 56.3125 14.9004 56.0859 15.2949C55.8594 15.6895 55.543 15.9883 55.1367 16.1914C54.7344 16.3984 54.2695 16.502 53.7422 16.502C53.5234 16.502 53.2656 16.4668 52.9688 16.3965C52.6758 16.3301 52.3867 16.2148 52.1016 16.0508C51.8203 15.8906 51.584 15.6738 51.3926 15.4004L51.9609 14.7559C52.2266 15.0762 52.5039 15.2988 52.793 15.4238C53.0859 15.5488 53.375 15.6113 53.6602 15.6113C54.0039 15.6113 54.3008 15.5469 54.5508 15.418C54.8008 15.2891 54.9941 15.0977 55.1309 14.8438C55.2715 14.5938 55.3418 14.2852 55.3418 13.918V9.05469L55.4414 7.66016ZM51.0762 10.9004V10.7773C51.0762 10.293 51.1328 9.85352 51.2461 9.45898C51.3633 9.06055 51.5293 8.71875 51.7441 8.43359C51.9629 8.14844 52.2266 7.92969 52.5352 7.77734C52.8438 7.62109 53.1914 7.54297 53.5781 7.54297C53.9766 7.54297 54.3242 7.61328 54.6211 7.75391C54.9219 7.89062 55.1758 8.0918 55.3828 8.35742C55.5938 8.61914 55.7598 8.93555 55.8809 9.30664C56.002 9.67773 56.0859 10.0977 56.1328 10.5664V11.1055C56.0898 11.5703 56.0059 11.9883 55.8809 12.3594C55.7598 12.7305 55.5938 13.0469 55.3828 13.3086C55.1758 13.5703 54.9219 13.7715 54.6211 13.9121C54.3203 14.0488 53.9688 14.1172 53.5664 14.1172C53.1875 14.1172 52.8438 14.0371 52.5352 13.877C52.2305 13.7168 51.9688 13.4922 51.75 13.2031C51.5312 12.9141 51.3633 12.5742 51.2461 12.1836C51.1328 11.7891 51.0762 11.3613 51.0762 10.9004ZM52.1602 10.7773V10.9004C52.1602 11.2168 52.1914 11.5137 52.2539 11.791C52.3203 12.0684 52.4199 12.3125 52.5527 12.5234C52.6895 12.7344 52.8633 12.9004 53.0742 13.0215C53.2852 13.1387 53.5371 13.1973 53.8301 13.1973C54.1895 13.1973 54.4863 13.1211 54.7207 12.9688C54.9551 12.8164 55.1406 12.6152 55.2773 12.3652C55.418 12.1152 55.5273 11.8438 55.6055 11.5508V10.1387C55.5625 9.92383 55.4961 9.7168 55.4062 9.51758C55.3203 9.31445 55.207 9.13477 55.0664 8.97852C54.9297 8.81836 54.7598 8.69141 54.5566 8.59766C54.3535 8.50391 54.1152 8.45703 53.8418 8.45703C53.5449 8.45703 53.2891 8.51953 53.0742 8.64453C52.8633 8.76562 52.6895 8.93359 52.5527 9.14844C52.4199 9.35938 52.3203 9.60547 52.2539 9.88672C52.1914 10.1641 52.1602 10.4609 52.1602 10.7773Z" fill="white"/>
</svg>
