<svg width="316" height="172" viewBox="0 0 316 172" fill="none" xmlns="http://www.w3.org/2000/svg">
<path d="M0 0H185.852C192.479 0 197.852 5.37258 197.852 12V35.3359C197.852 41.9634 192.479 47.3359 185.852 47.3359H12C5.37259 47.3359 0 41.9634 0 35.3359V0Z" fill="#E9E9E9"/>
<path opacity="0.64" d="M173.703 16.625L173.602 24.7891H172.297L172.188 16.625H173.703ZM172.141 27.2734C172.141 27.0391 172.211 26.8411 172.352 26.6797C172.497 26.5182 172.711 26.4375 172.992 26.4375C173.268 26.4375 173.479 26.5182 173.625 26.6797C173.776 26.8411 173.852 27.0391 173.852 27.2734C173.852 27.4974 173.776 27.6901 173.625 27.8516C173.479 28.013 173.268 28.0938 172.992 28.0938C172.711 28.0938 172.497 28.013 172.352 27.8516C172.211 27.6901 172.141 27.4974 172.141 27.2734Z" fill="black"/>
<path opacity="0.64" d="M168.414 19.5469V28H166.961V19.5469H168.414ZM166.852 17.3047C166.852 17.0703 166.922 16.8724 167.062 16.7109C167.208 16.5495 167.422 16.4688 167.703 16.4688C167.979 16.4688 168.19 16.5495 168.336 16.7109C168.487 16.8724 168.562 17.0703 168.562 17.3047C168.562 17.5286 168.487 17.7214 168.336 17.8828C168.19 18.0391 167.979 18.1172 167.703 18.1172C167.422 18.1172 167.208 18.0391 167.062 17.8828C166.922 17.7214 166.852 17.5286 166.852 17.3047Z" fill="black"/>
<path opacity="0.64" d="M162.086 19.5469H163.398V27.8203C163.398 28.5651 163.247 29.2005 162.945 29.7266C162.643 30.2526 162.221 30.651 161.68 30.9219C161.143 31.1979 160.523 31.3359 159.82 31.3359C159.529 31.3359 159.185 31.2891 158.789 31.1953C158.398 31.1068 158.013 30.9531 157.633 30.7344C157.258 30.5208 156.943 30.2318 156.688 29.8672L157.445 29.0078C157.799 29.4349 158.169 29.7318 158.555 29.8984C158.945 30.0651 159.331 30.1484 159.711 30.1484C160.169 30.1484 160.565 30.0625 160.898 29.8906C161.232 29.7188 161.49 29.4635 161.672 29.125C161.859 28.7917 161.953 28.3802 161.953 27.8906V21.4062L162.086 19.5469ZM156.266 23.8672V23.7031C156.266 23.0573 156.341 22.4714 156.492 21.9453C156.648 21.4141 156.87 20.9583 157.156 20.5781C157.448 20.1979 157.799 19.9062 158.211 19.7031C158.622 19.4948 159.086 19.3906 159.602 19.3906C160.133 19.3906 160.596 19.4844 160.992 19.6719C161.393 19.8542 161.732 20.1224 162.008 20.4766C162.289 20.8255 162.51 21.2474 162.672 21.7422C162.833 22.237 162.945 22.7969 163.008 23.4219V24.1406C162.951 24.7604 162.839 25.3177 162.672 25.8125C162.51 26.3073 162.289 26.7292 162.008 27.0781C161.732 27.4271 161.393 27.6953 160.992 27.8828C160.591 28.0651 160.122 28.1562 159.586 28.1562C159.081 28.1562 158.622 28.0495 158.211 27.8359C157.805 27.6224 157.456 27.3229 157.164 26.9375C156.872 26.5521 156.648 26.099 156.492 25.5781C156.341 25.0521 156.266 24.4818 156.266 23.8672ZM157.711 23.7031V23.8672C157.711 24.2891 157.753 24.6849 157.836 25.0547C157.924 25.4245 158.057 25.75 158.234 26.0312C158.417 26.3125 158.648 26.5339 158.93 26.6953C159.211 26.8516 159.547 26.9297 159.938 26.9297C160.417 26.9297 160.812 26.8281 161.125 26.625C161.438 26.4219 161.685 26.1536 161.867 25.8203C162.055 25.487 162.201 25.125 162.305 24.7344V22.8516C162.247 22.5651 162.159 22.2891 162.039 22.0234C161.924 21.7526 161.773 21.513 161.586 21.3047C161.404 21.0911 161.177 20.9219 160.906 20.7969C160.635 20.6719 160.318 20.6094 159.953 20.6094C159.557 20.6094 159.216 20.6927 158.93 20.8594C158.648 21.0208 158.417 21.2448 158.234 21.5312C158.057 21.8125 157.924 22.1406 157.836 22.5156C157.753 22.8854 157.711 23.2812 157.711 23.7031Z" fill="black"/>
<path opacity="0.64" d="M151.641 26.5547V22.2031C151.641 21.8698 151.573 21.5807 151.438 21.3359C151.307 21.0859 151.109 20.8932 150.844 20.7578C150.578 20.6224 150.25 20.5547 149.859 20.5547C149.495 20.5547 149.174 20.6172 148.898 20.7422C148.628 20.8672 148.414 21.0312 148.258 21.2344C148.107 21.4375 148.031 21.6562 148.031 21.8906H146.586C146.586 21.5885 146.664 21.2891 146.82 20.9922C146.977 20.6953 147.201 20.4271 147.492 20.1875C147.789 19.9427 148.143 19.75 148.555 19.6094C148.971 19.4635 149.435 19.3906 149.945 19.3906C150.56 19.3906 151.102 19.4948 151.57 19.7031C152.044 19.9115 152.414 20.2266 152.68 20.6484C152.951 21.0651 153.086 21.5885 153.086 22.2188V26.1562C153.086 26.4375 153.109 26.737 153.156 27.0547C153.208 27.3724 153.284 27.6458 153.383 27.875V28H151.875C151.802 27.8333 151.745 27.612 151.703 27.3359C151.661 27.0547 151.641 26.7943 151.641 26.5547ZM151.891 22.875L151.906 23.8906H150.445C150.034 23.8906 149.667 23.9245 149.344 23.9922C149.021 24.0547 148.75 24.151 148.531 24.2812C148.312 24.4115 148.146 24.5755 148.031 24.7734C147.917 24.9661 147.859 25.1927 147.859 25.4531C147.859 25.7188 147.919 25.9609 148.039 26.1797C148.159 26.3984 148.339 26.5729 148.578 26.7031C148.823 26.8281 149.122 26.8906 149.477 26.8906C149.919 26.8906 150.31 26.7969 150.648 26.6094C150.987 26.4219 151.255 26.1927 151.453 25.9219C151.656 25.651 151.766 25.388 151.781 25.1328L152.398 25.8281C152.362 26.0469 152.263 26.2891 152.102 26.5547C151.94 26.8203 151.724 27.0755 151.453 27.3203C151.188 27.5599 150.87 27.7604 150.5 27.9219C150.135 28.0781 149.724 28.1562 149.266 28.1562C148.693 28.1562 148.19 28.0443 147.758 27.8203C147.331 27.5964 146.997 27.2969 146.758 26.9219C146.523 26.5417 146.406 26.1172 146.406 25.6484C146.406 25.1953 146.495 24.7969 146.672 24.4531C146.849 24.1042 147.104 23.8151 147.438 23.5859C147.771 23.3516 148.172 23.1745 148.641 23.0547C149.109 22.9349 149.633 22.875 150.211 22.875H151.891Z" fill="black"/>
<path opacity="0.64" d="M137.867 21.1719V31.25H136.414V19.5469H137.742L137.867 21.1719ZM143.562 23.7031V23.8672C143.562 24.4818 143.49 25.0521 143.344 25.5781C143.198 26.099 142.984 26.5521 142.703 26.9375C142.427 27.3229 142.086 27.6224 141.68 27.8359C141.273 28.0495 140.807 28.1562 140.281 28.1562C139.745 28.1562 139.271 28.0677 138.859 27.8906C138.448 27.7135 138.099 27.4557 137.812 27.1172C137.526 26.7786 137.297 26.3724 137.125 25.8984C136.958 25.4245 136.844 24.8906 136.781 24.2969V23.4219C136.844 22.7969 136.961 22.237 137.133 21.7422C137.305 21.2474 137.531 20.8255 137.812 20.4766C138.099 20.1224 138.445 19.8542 138.852 19.6719C139.258 19.4844 139.727 19.3906 140.258 19.3906C140.789 19.3906 141.26 19.4948 141.672 19.7031C142.083 19.9062 142.43 20.1979 142.711 20.5781C142.992 20.9583 143.203 21.4141 143.344 21.9453C143.49 22.4714 143.562 23.0573 143.562 23.7031ZM142.109 23.8672V23.7031C142.109 23.2812 142.065 22.8854 141.977 22.5156C141.888 22.1406 141.75 21.8125 141.562 21.5312C141.38 21.2448 141.146 21.0208 140.859 20.8594C140.573 20.6927 140.232 20.6094 139.836 20.6094C139.471 20.6094 139.154 20.6719 138.883 20.7969C138.617 20.9219 138.391 21.0911 138.203 21.3047C138.016 21.513 137.862 21.7526 137.742 22.0234C137.628 22.2891 137.542 22.5651 137.484 22.8516V24.875C137.589 25.2396 137.734 25.5833 137.922 25.9062C138.109 26.224 138.359 26.4818 138.672 26.6797C138.984 26.8724 139.378 26.9688 139.852 26.9688C140.242 26.9688 140.578 26.888 140.859 26.7266C141.146 26.5599 141.38 26.3333 141.562 26.0469C141.75 25.7604 141.888 25.4323 141.977 25.0625C142.065 24.6875 142.109 24.2891 142.109 23.8672Z" fill="black"/>
<path opacity="0.64" d="M128.258 19.5469V20.6562H123.688V19.5469H128.258ZM125.234 17.4922H126.68V25.9062C126.68 26.1927 126.724 26.4089 126.812 26.5547C126.901 26.7005 127.016 26.7969 127.156 26.8438C127.297 26.8906 127.448 26.9141 127.609 26.9141C127.729 26.9141 127.854 26.9036 127.984 26.8828C128.12 26.8568 128.221 26.8359 128.289 26.8203L128.297 28C128.182 28.0365 128.031 28.0703 127.844 28.1016C127.661 28.138 127.44 28.1562 127.18 28.1562C126.826 28.1562 126.5 28.0859 126.203 27.9453C125.906 27.8047 125.669 27.5703 125.492 27.2422C125.32 26.9089 125.234 26.4609 125.234 25.8984V17.4922Z" fill="black"/>
<path opacity="0.64" d="M119.75 26.5547V22.2031C119.75 21.8698 119.682 21.5807 119.547 21.3359C119.417 21.0859 119.219 20.8932 118.953 20.7578C118.688 20.6224 118.359 20.5547 117.969 20.5547C117.604 20.5547 117.284 20.6172 117.008 20.7422C116.737 20.8672 116.523 21.0312 116.367 21.2344C116.216 21.4375 116.141 21.6562 116.141 21.8906H114.695C114.695 21.5885 114.773 21.2891 114.93 20.9922C115.086 20.6953 115.31 20.4271 115.602 20.1875C115.898 19.9427 116.253 19.75 116.664 19.6094C117.081 19.4635 117.544 19.3906 118.055 19.3906C118.669 19.3906 119.211 19.4948 119.68 19.7031C120.154 19.9115 120.523 20.2266 120.789 20.6484C121.06 21.0651 121.195 21.5885 121.195 22.2188V26.1562C121.195 26.4375 121.219 26.737 121.266 27.0547C121.318 27.3724 121.393 27.6458 121.492 27.875V28H119.984C119.911 27.8333 119.854 27.612 119.812 27.3359C119.771 27.0547 119.75 26.7943 119.75 26.5547ZM120 22.875L120.016 23.8906H118.555C118.143 23.8906 117.776 23.9245 117.453 23.9922C117.13 24.0547 116.859 24.151 116.641 24.2812C116.422 24.4115 116.255 24.5755 116.141 24.7734C116.026 24.9661 115.969 25.1927 115.969 25.4531C115.969 25.7188 116.029 25.9609 116.148 26.1797C116.268 26.3984 116.448 26.5729 116.688 26.7031C116.932 26.8281 117.232 26.8906 117.586 26.8906C118.029 26.8906 118.419 26.7969 118.758 26.6094C119.096 26.4219 119.365 26.1927 119.562 25.9219C119.766 25.651 119.875 25.388 119.891 25.1328L120.508 25.8281C120.471 26.0469 120.372 26.2891 120.211 26.5547C120.049 26.8203 119.833 27.0755 119.562 27.3203C119.297 27.5599 118.979 27.7604 118.609 27.9219C118.245 28.0781 117.833 28.1562 117.375 28.1562C116.802 28.1562 116.299 28.0443 115.867 27.8203C115.44 27.5964 115.107 27.2969 114.867 26.9219C114.633 26.5417 114.516 26.1172 114.516 25.6484C114.516 25.1953 114.604 24.7969 114.781 24.4531C114.958 24.1042 115.214 23.8151 115.547 23.5859C115.88 23.3516 116.281 23.1745 116.75 23.0547C117.219 22.9349 117.742 22.875 118.32 22.875H120Z" fill="black"/>
<path opacity="0.64" d="M100.922 21.2266V28H99.4688V19.5469H100.844L100.922 21.2266ZM100.625 23.4531L99.9531 23.4297C99.9583 22.8516 100.034 22.3177 100.18 21.8281C100.326 21.3333 100.542 20.9036 100.828 20.5391C101.115 20.1745 101.471 19.8932 101.898 19.6953C102.326 19.4922 102.82 19.3906 103.383 19.3906C103.779 19.3906 104.143 19.4479 104.477 19.5625C104.81 19.6719 105.099 19.8464 105.344 20.0859C105.589 20.3255 105.779 20.6328 105.914 21.0078C106.049 21.3828 106.117 21.8359 106.117 22.3672V28H104.672V22.4375C104.672 21.9948 104.596 21.6406 104.445 21.375C104.299 21.1094 104.091 20.9167 103.82 20.7969C103.549 20.6719 103.232 20.6094 102.867 20.6094C102.44 20.6094 102.083 20.6849 101.797 20.8359C101.51 20.987 101.281 21.1953 101.109 21.4609C100.938 21.7266 100.812 22.0312 100.734 22.375C100.661 22.7135 100.625 23.0729 100.625 23.4531ZM106.102 22.6562L105.133 22.9531C105.138 22.4896 105.214 22.0443 105.359 21.6172C105.51 21.1901 105.727 20.8099 106.008 20.4766C106.294 20.1432 106.646 19.8802 107.062 19.6875C107.479 19.4896 107.956 19.3906 108.492 19.3906C108.945 19.3906 109.346 19.4505 109.695 19.5703C110.049 19.6901 110.346 19.875 110.586 20.125C110.831 20.3698 111.016 20.6849 111.141 21.0703C111.266 21.4557 111.328 21.9141 111.328 22.4453V28H109.875V22.4297C109.875 21.9557 109.799 21.5885 109.648 21.3281C109.503 21.0625 109.294 20.8776 109.023 20.7734C108.758 20.6641 108.44 20.6094 108.07 20.6094C107.753 20.6094 107.471 20.6641 107.227 20.7734C106.982 20.8828 106.776 21.0339 106.609 21.2266C106.443 21.4141 106.315 21.6302 106.227 21.875C106.143 22.1198 106.102 22.3802 106.102 22.6562Z" fill="black"/>
<path opacity="0.64" d="M94.5156 26.5547V22.2031C94.5156 21.8698 94.4479 21.5807 94.3125 21.3359C94.1823 21.0859 93.9844 20.8932 93.7188 20.7578C93.4531 20.6224 93.125 20.5547 92.7344 20.5547C92.3698 20.5547 92.0495 20.6172 91.7734 20.7422C91.5026 20.8672 91.2891 21.0312 91.1328 21.2344C90.9818 21.4375 90.9062 21.6562 90.9062 21.8906H89.4609C89.4609 21.5885 89.5391 21.2891 89.6953 20.9922C89.8516 20.6953 90.0755 20.4271 90.3672 20.1875C90.6641 19.9427 91.0182 19.75 91.4297 19.6094C91.8464 19.4635 92.3099 19.3906 92.8203 19.3906C93.4349 19.3906 93.9766 19.4948 94.4453 19.7031C94.9193 19.9115 95.2891 20.2266 95.5547 20.6484C95.8255 21.0651 95.9609 21.5885 95.9609 22.2188V26.1562C95.9609 26.4375 95.9844 26.737 96.0312 27.0547C96.0833 27.3724 96.1589 27.6458 96.2578 27.875V28H94.75C94.6771 27.8333 94.6198 27.612 94.5781 27.3359C94.5365 27.0547 94.5156 26.7943 94.5156 26.5547ZM94.7656 22.875L94.7812 23.8906H93.3203C92.9089 23.8906 92.5417 23.9245 92.2188 23.9922C91.8958 24.0547 91.625 24.151 91.4062 24.2812C91.1875 24.4115 91.0208 24.5755 90.9062 24.7734C90.7917 24.9661 90.7344 25.1927 90.7344 25.4531C90.7344 25.7188 90.7943 25.9609 90.9141 26.1797C91.0339 26.3984 91.2135 26.5729 91.4531 26.7031C91.6979 26.8281 91.9974 26.8906 92.3516 26.8906C92.7943 26.8906 93.1849 26.7969 93.5234 26.6094C93.862 26.4219 94.1302 26.1927 94.3281 25.9219C94.5312 25.651 94.6406 25.388 94.6562 25.1328L95.2734 25.8281C95.237 26.0469 95.138 26.2891 94.9766 26.5547C94.8151 26.8203 94.599 27.0755 94.3281 27.3203C94.0625 27.5599 93.7448 27.7604 93.375 27.9219C93.0104 28.0781 92.599 28.1562 92.1406 28.1562C91.5677 28.1562 91.0651 28.0443 90.6328 27.8203C90.2057 27.5964 89.8724 27.2969 89.6328 26.9219C89.3984 26.5417 89.2812 26.1172 89.2812 25.6484C89.2812 25.1953 89.3698 24.7969 89.5469 24.4531C89.724 24.1042 89.9792 23.8151 90.3125 23.5859C90.6458 23.3516 91.0469 23.1745 91.5156 23.0547C91.9844 22.9349 92.5078 22.875 93.0859 22.875H94.7656Z" fill="black"/>
<path opacity="0.64" d="M85.9609 16V28H84.5078V16H85.9609Z" fill="black"/>
<path opacity="0.64" d="M78.1641 28.1562C77.5755 28.1562 77.0417 28.0573 76.5625 27.8594C76.0885 27.6562 75.6797 27.3724 75.3359 27.0078C74.9974 26.6432 74.737 26.2109 74.5547 25.7109C74.3724 25.2109 74.2812 24.6641 74.2812 24.0703V23.7422C74.2812 23.0547 74.3828 22.4427 74.5859 21.9062C74.7891 21.3646 75.0651 20.9062 75.4141 20.5312C75.763 20.1562 76.1589 19.8724 76.6016 19.6797C77.0443 19.487 77.5026 19.3906 77.9766 19.3906C78.5807 19.3906 79.1016 19.4948 79.5391 19.7031C79.9818 19.9115 80.3438 20.2031 80.625 20.5781C80.9062 20.9479 81.1146 21.3854 81.25 21.8906C81.3854 22.3906 81.4531 22.9375 81.4531 23.5312V24.1797H75.1406V23H80.0078V22.8906C79.987 22.5156 79.9089 22.151 79.7734 21.7969C79.6432 21.4427 79.4349 21.151 79.1484 20.9219C78.862 20.6927 78.4714 20.5781 77.9766 20.5781C77.6484 20.5781 77.3464 20.6484 77.0703 20.7891C76.7943 20.9245 76.5573 21.1276 76.3594 21.3984C76.1615 21.6693 76.0078 22 75.8984 22.3906C75.7891 22.7812 75.7344 23.2318 75.7344 23.7422V24.0703C75.7344 24.4714 75.7891 24.849 75.8984 25.2031C76.013 25.5521 76.1771 25.8594 76.3906 26.125C76.6094 26.3906 76.8724 26.599 77.1797 26.75C77.4922 26.901 77.8464 26.9766 78.2422 26.9766C78.7526 26.9766 79.1849 26.8724 79.5391 26.6641C79.8932 26.4557 80.2031 26.1771 80.4688 25.8281L81.3438 26.5234C81.1615 26.7995 80.9297 27.0625 80.6484 27.3125C80.3672 27.5625 80.0208 27.7656 79.6094 27.9219C79.2031 28.0781 78.7214 28.1562 78.1641 28.1562Z" fill="black"/>
<path opacity="0.64" d="M70.0625 25.7578C70.0625 25.5495 70.0156 25.3568 69.9219 25.1797C69.8333 24.9974 69.6484 24.8333 69.3672 24.6875C69.0911 24.5365 68.6745 24.4062 68.1172 24.2969C67.6484 24.1979 67.224 24.0807 66.8438 23.9453C66.4688 23.8099 66.1484 23.6458 65.8828 23.4531C65.6224 23.2604 65.4219 23.0339 65.2812 22.7734C65.1406 22.513 65.0703 22.2083 65.0703 21.8594C65.0703 21.526 65.1432 21.2109 65.2891 20.9141C65.4401 20.6172 65.651 20.3542 65.9219 20.125C66.1979 19.8958 66.5286 19.7161 66.9141 19.5859C67.2995 19.4557 67.7292 19.3906 68.2031 19.3906C68.8802 19.3906 69.4583 19.5104 69.9375 19.75C70.4167 19.9896 70.7839 20.3099 71.0391 20.7109C71.2943 21.1068 71.4219 21.5469 71.4219 22.0312H69.9766C69.9766 21.7969 69.9062 21.5703 69.7656 21.3516C69.6302 21.1276 69.4297 20.9427 69.1641 20.7969C68.9036 20.651 68.5833 20.5781 68.2031 20.5781C67.8021 20.5781 67.4766 20.6406 67.2266 20.7656C66.9818 20.8854 66.8021 21.0391 66.6875 21.2266C66.5781 21.4141 66.5234 21.612 66.5234 21.8203C66.5234 21.9766 66.5495 22.1172 66.6016 22.2422C66.6589 22.362 66.7578 22.474 66.8984 22.5781C67.0391 22.6771 67.237 22.7708 67.4922 22.8594C67.7474 22.9479 68.0729 23.0365 68.4688 23.125C69.1615 23.2812 69.7318 23.4688 70.1797 23.6875C70.6276 23.9062 70.9609 24.1745 71.1797 24.4922C71.3984 24.8099 71.5078 25.1953 71.5078 25.6484C71.5078 26.0182 71.4297 26.3568 71.2734 26.6641C71.1224 26.9714 70.901 27.237 70.6094 27.4609C70.3229 27.6797 69.9792 27.8516 69.5781 27.9766C69.1823 28.0964 68.737 28.1562 68.2422 28.1562C67.4974 28.1562 66.8672 28.0234 66.3516 27.7578C65.8359 27.4922 65.4453 27.1484 65.1797 26.7266C64.9141 26.3047 64.7812 25.8594 64.7812 25.3906H66.2344C66.2552 25.7865 66.3698 26.1016 66.5781 26.3359C66.7865 26.5651 67.0417 26.7292 67.3438 26.8281C67.6458 26.9219 67.9453 26.9688 68.2422 26.9688C68.638 26.9688 68.9688 26.9167 69.2344 26.8125C69.5052 26.7083 69.7109 26.5651 69.8516 26.3828C69.9922 26.2005 70.0625 25.9922 70.0625 25.7578Z" fill="black"/>
<path opacity="0.64" d="M49.1641 23.8672V23.6875C49.1641 23.0781 49.2526 22.513 49.4297 21.9922C49.6068 21.4661 49.862 21.0104 50.1953 20.625C50.5286 20.2344 50.9323 19.9323 51.4062 19.7188C51.8802 19.5 52.4115 19.3906 53 19.3906C53.5938 19.3906 54.1276 19.5 54.6016 19.7188C55.0807 19.9323 55.487 20.2344 55.8203 20.625C56.1589 21.0104 56.4167 21.4661 56.5938 21.9922C56.7708 22.513 56.8594 23.0781 56.8594 23.6875V23.8672C56.8594 24.4766 56.7708 25.0417 56.5938 25.5625C56.4167 26.0833 56.1589 26.5391 55.8203 26.9297C55.487 27.3151 55.0833 27.6172 54.6094 27.8359C54.1406 28.0495 53.6094 28.1562 53.0156 28.1562C52.4219 28.1562 51.888 28.0495 51.4141 27.8359C50.9401 27.6172 50.5339 27.3151 50.1953 26.9297C49.862 26.5391 49.6068 26.0833 49.4297 25.5625C49.2526 25.0417 49.1641 24.4766 49.1641 23.8672ZM50.6094 23.6875V23.8672C50.6094 24.2891 50.6589 24.6875 50.7578 25.0625C50.8568 25.4323 51.0052 25.7604 51.2031 26.0469C51.4062 26.3333 51.6589 26.5599 51.9609 26.7266C52.263 26.888 52.6146 26.9688 53.0156 26.9688C53.4115 26.9688 53.7578 26.888 54.0547 26.7266C54.3568 26.5599 54.6068 26.3333 54.8047 26.0469C55.0026 25.7604 55.151 25.4323 55.25 25.0625C55.3542 24.6875 55.4062 24.2891 55.4062 23.8672V23.6875C55.4062 23.2708 55.3542 22.8776 55.25 22.5078C55.151 22.1328 55 21.8021 54.7969 21.5156C54.599 21.224 54.349 20.9948 54.0469 20.8281C53.75 20.6615 53.401 20.5781 53 20.5781C52.6042 20.5781 52.2552 20.6615 51.9531 20.8281C51.6562 20.9948 51.4062 21.224 51.2031 21.5156C51.0052 21.8021 50.8568 22.1328 50.7578 22.5078C50.6589 22.8776 50.6094 23.2708 50.6094 23.6875Z" fill="black"/>
<path opacity="0.64" d="M45.9766 16V28H44.5234V16H45.9766Z" fill="black"/>
<path opacity="0.64" d="M39.4375 26.5547V22.2031C39.4375 21.8698 39.3698 21.5807 39.2344 21.3359C39.1042 21.0859 38.9062 20.8932 38.6406 20.7578C38.375 20.6224 38.0469 20.5547 37.6562 20.5547C37.2917 20.5547 36.9714 20.6172 36.6953 20.7422C36.4245 20.8672 36.2109 21.0312 36.0547 21.2344C35.9036 21.4375 35.8281 21.6562 35.8281 21.8906H34.3828C34.3828 21.5885 34.4609 21.2891 34.6172 20.9922C34.7734 20.6953 34.9974 20.4271 35.2891 20.1875C35.5859 19.9427 35.9401 19.75 36.3516 19.6094C36.7682 19.4635 37.2318 19.3906 37.7422 19.3906C38.3568 19.3906 38.8984 19.4948 39.3672 19.7031C39.8411 19.9115 40.2109 20.2266 40.4766 20.6484C40.7474 21.0651 40.8828 21.5885 40.8828 22.2188V26.1562C40.8828 26.4375 40.9062 26.737 40.9531 27.0547C41.0052 27.3724 41.0807 27.6458 41.1797 27.875V28H39.6719C39.599 27.8333 39.5417 27.612 39.5 27.3359C39.4583 27.0547 39.4375 26.7943 39.4375 26.5547ZM39.6875 22.875L39.7031 23.8906H38.2422C37.8307 23.8906 37.4635 23.9245 37.1406 23.9922C36.8177 24.0547 36.5469 24.151 36.3281 24.2812C36.1094 24.4115 35.9427 24.5755 35.8281 24.7734C35.7135 24.9661 35.6562 25.1927 35.6562 25.4531C35.6562 25.7188 35.7161 25.9609 35.8359 26.1797C35.9557 26.3984 36.1354 26.5729 36.375 26.7031C36.6198 26.8281 36.9193 26.8906 37.2734 26.8906C37.7161 26.8906 38.1068 26.7969 38.4453 26.6094C38.7839 26.4219 39.0521 26.1927 39.25 25.9219C39.4531 25.651 39.5625 25.388 39.5781 25.1328L40.1953 25.8281C40.1589 26.0469 40.0599 26.2891 39.8984 26.5547C39.737 26.8203 39.5208 27.0755 39.25 27.3203C38.9844 27.5599 38.6667 27.7604 38.2969 27.9219C37.9323 28.0781 37.5208 28.1562 37.0625 28.1562C36.4896 28.1562 35.987 28.0443 35.5547 27.8203C35.1276 27.5964 34.7943 27.2969 34.5547 26.9219C34.3203 26.5417 34.2031 26.1172 34.2031 25.6484C34.2031 25.1953 34.2917 24.7969 34.4688 24.4531C34.6458 24.1042 34.901 23.8151 35.2344 23.5859C35.5677 23.3516 35.9688 23.1745 36.4375 23.0547C36.9062 22.9349 37.4297 22.875 38.0078 22.875H39.6875Z" fill="black"/>
<path opacity="0.64" d="M29.4297 21.5156V22.7422H23.2734V21.5156H29.4297ZM23.5078 16.625V28H22V16.625H23.5078ZM30.7422 16.625V28H29.2422V16.625H30.7422Z" fill="black"/>
<path d="M0 56H267.672C274.299 56 279.672 61.3726 279.672 68V91.4141C279.672 98.0415 274.299 103.414 267.672 103.414H12C5.37258 103.414 0 98.0415 0 91.4141V56Z" fill="#E9E9E9"/>
<path opacity="0.64" d="M255.523 75.5469V84H254.07V75.5469H255.523ZM253.961 73.3047C253.961 73.0703 254.031 72.8724 254.172 72.7109C254.318 72.5495 254.531 72.4688 254.812 72.4688C255.089 72.4688 255.299 72.5495 255.445 72.7109C255.596 72.8724 255.672 73.0703 255.672 73.3047C255.672 73.5286 255.596 73.7214 255.445 73.8828C255.299 74.0391 255.089 74.1172 254.812 74.1172C254.531 74.1172 254.318 74.0391 254.172 73.8828C254.031 73.7214 253.961 73.5286 253.961 73.3047Z" fill="black"/>
<path opacity="0.64" d="M249 82.3594V72H250.453V84H249.125L249 82.3594ZM243.312 79.8672V79.7031C243.312 79.0573 243.391 78.4714 243.547 77.9453C243.708 77.4141 243.935 76.9583 244.227 76.5781C244.523 76.1979 244.875 75.9062 245.281 75.7031C245.693 75.4948 246.151 75.3906 246.656 75.3906C247.188 75.3906 247.651 75.4844 248.047 75.6719C248.448 75.8542 248.786 76.1224 249.062 76.4766C249.344 76.8255 249.565 77.2474 249.727 77.7422C249.888 78.237 250 78.7969 250.062 79.4219V80.1406C250.005 80.7604 249.893 81.3177 249.727 81.8125C249.565 82.3073 249.344 82.7292 249.062 83.0781C248.786 83.4271 248.448 83.6953 248.047 83.8828C247.646 84.0651 247.177 84.1562 246.641 84.1562C246.146 84.1562 245.693 84.0495 245.281 83.8359C244.875 83.6224 244.523 83.3229 244.227 82.9375C243.935 82.5521 243.708 82.099 243.547 81.5781C243.391 81.0521 243.312 80.4818 243.312 79.8672ZM244.766 79.7031V79.8672C244.766 80.2891 244.807 80.6849 244.891 81.0547C244.979 81.4245 245.115 81.75 245.297 82.0312C245.479 82.3125 245.711 82.5339 245.992 82.6953C246.273 82.8516 246.609 82.9297 247 82.9297C247.479 82.9297 247.872 82.8281 248.18 82.625C248.492 82.4219 248.742 82.1536 248.93 81.8203C249.117 81.487 249.263 81.125 249.367 80.7344V78.8516C249.305 78.5651 249.214 78.2891 249.094 78.0234C248.979 77.7526 248.828 77.513 248.641 77.3047C248.458 77.0911 248.232 76.9219 247.961 76.7969C247.695 76.6719 247.38 76.6094 247.016 76.6094C246.62 76.6094 246.279 76.6927 245.992 76.8594C245.711 77.0208 245.479 77.2448 245.297 77.5312C245.115 77.8125 244.979 78.1406 244.891 78.5156C244.807 78.8854 244.766 79.2812 244.766 79.7031Z" fill="black"/>
<path opacity="0.64" d="M235.023 77.3516V84H233.578V75.5469H234.945L235.023 77.3516ZM234.68 79.4531L234.078 79.4297C234.083 78.8516 234.169 78.3177 234.336 77.8281C234.503 77.3333 234.737 76.9036 235.039 76.5391C235.341 76.1745 235.701 75.8932 236.117 75.6953C236.539 75.4922 237.005 75.3906 237.516 75.3906C237.932 75.3906 238.307 75.4479 238.641 75.5625C238.974 75.6719 239.258 75.849 239.492 76.0938C239.732 76.3385 239.914 76.6562 240.039 77.0469C240.164 77.4323 240.227 77.9036 240.227 78.4609V84H238.773V78.4453C238.773 78.0026 238.708 77.6484 238.578 77.3828C238.448 77.112 238.258 76.9167 238.008 76.7969C237.758 76.6719 237.451 76.6094 237.086 76.6094C236.727 76.6094 236.398 76.6849 236.102 76.8359C235.81 76.987 235.557 77.1953 235.344 77.4609C235.135 77.7266 234.971 78.0312 234.852 78.375C234.737 78.7135 234.68 79.0729 234.68 79.4531Z" fill="black"/>
<path opacity="0.64" d="M226.32 73.6328L222.555 84H221.016L225.352 72.625H226.344L226.32 73.6328ZM229.477 84L225.703 73.6328L225.68 72.625H226.672L231.023 84H229.477ZM229.281 79.7891V81.0234H222.891V79.7891H229.281Z" fill="black"/>
<path opacity="0.64" d="M211.703 82.5547V78.2031C211.703 77.8698 211.635 77.5807 211.5 77.3359C211.37 77.0859 211.172 76.8932 210.906 76.7578C210.641 76.6224 210.312 76.5547 209.922 76.5547C209.557 76.5547 209.237 76.6172 208.961 76.7422C208.69 76.8672 208.477 77.0312 208.32 77.2344C208.169 77.4375 208.094 77.6562 208.094 77.8906H206.648C206.648 77.5885 206.727 77.2891 206.883 76.9922C207.039 76.6953 207.263 76.4271 207.555 76.1875C207.852 75.9427 208.206 75.75 208.617 75.6094C209.034 75.4635 209.497 75.3906 210.008 75.3906C210.622 75.3906 211.164 75.4948 211.633 75.7031C212.107 75.9115 212.477 76.2266 212.742 76.6484C213.013 77.0651 213.148 77.5885 213.148 78.2188V82.1562C213.148 82.4375 213.172 82.737 213.219 83.0547C213.271 83.3724 213.346 83.6458 213.445 83.875V84H211.938C211.865 83.8333 211.807 83.612 211.766 83.3359C211.724 83.0547 211.703 82.7943 211.703 82.5547ZM211.953 78.875L211.969 79.8906H210.508C210.096 79.8906 209.729 79.9245 209.406 79.9922C209.083 80.0547 208.812 80.151 208.594 80.2812C208.375 80.4115 208.208 80.5755 208.094 80.7734C207.979 80.9661 207.922 81.1927 207.922 81.4531C207.922 81.7188 207.982 81.9609 208.102 82.1797C208.221 82.3984 208.401 82.5729 208.641 82.7031C208.885 82.8281 209.185 82.8906 209.539 82.8906C209.982 82.8906 210.372 82.7969 210.711 82.6094C211.049 82.4219 211.318 82.1927 211.516 81.9219C211.719 81.651 211.828 81.388 211.844 81.1328L212.461 81.8281C212.424 82.0469 212.326 82.2891 212.164 82.5547C212.003 82.8203 211.786 83.0755 211.516 83.3203C211.25 83.5599 210.932 83.7604 210.562 83.9219C210.198 84.0781 209.786 84.1562 209.328 84.1562C208.755 84.1562 208.253 84.0443 207.82 83.8203C207.393 83.5964 207.06 83.2969 206.82 82.9219C206.586 82.5417 206.469 82.1172 206.469 81.6484C206.469 81.1953 206.557 80.7969 206.734 80.4531C206.911 80.1042 207.167 79.8151 207.5 79.5859C207.833 79.3516 208.234 79.1745 208.703 79.0547C209.172 78.9349 209.695 78.875 210.273 78.875H211.953Z" fill="black"/>
<path opacity="0.64" d="M200.391 83.125L202.742 75.5469H204.289L200.898 85.3047C200.82 85.513 200.716 85.737 200.586 85.9766C200.461 86.2214 200.299 86.4531 200.102 86.6719C199.904 86.8906 199.664 87.0677 199.383 87.2031C199.107 87.3438 198.776 87.4141 198.391 87.4141C198.276 87.4141 198.13 87.3984 197.953 87.3672C197.776 87.3359 197.651 87.3099 197.578 87.2891L197.57 86.1172C197.612 86.1224 197.677 86.1276 197.766 86.1328C197.859 86.1432 197.924 86.1484 197.961 86.1484C198.289 86.1484 198.568 86.1042 198.797 86.0156C199.026 85.9323 199.219 85.7891 199.375 85.5859C199.536 85.388 199.674 85.1146 199.789 84.7656L200.391 83.125ZM198.664 75.5469L200.859 82.1094L201.234 83.6328L200.195 84.1641L197.086 75.5469H198.664Z" fill="black"/>
<path opacity="0.64" d="M193.172 82.5547V78.2031C193.172 77.8698 193.104 77.5807 192.969 77.3359C192.839 77.0859 192.641 76.8932 192.375 76.7578C192.109 76.6224 191.781 76.5547 191.391 76.5547C191.026 76.5547 190.706 76.6172 190.43 76.7422C190.159 76.8672 189.945 77.0312 189.789 77.2344C189.638 77.4375 189.562 77.6562 189.562 77.8906H188.117C188.117 77.5885 188.195 77.2891 188.352 76.9922C188.508 76.6953 188.732 76.4271 189.023 76.1875C189.32 75.9427 189.674 75.75 190.086 75.6094C190.503 75.4635 190.966 75.3906 191.477 75.3906C192.091 75.3906 192.633 75.4948 193.102 75.7031C193.576 75.9115 193.945 76.2266 194.211 76.6484C194.482 77.0651 194.617 77.5885 194.617 78.2188V82.1562C194.617 82.4375 194.641 82.737 194.688 83.0547C194.74 83.3724 194.815 83.6458 194.914 83.875V84H193.406C193.333 83.8333 193.276 83.612 193.234 83.3359C193.193 83.0547 193.172 82.7943 193.172 82.5547ZM193.422 78.875L193.438 79.8906H191.977C191.565 79.8906 191.198 79.9245 190.875 79.9922C190.552 80.0547 190.281 80.151 190.062 80.2812C189.844 80.4115 189.677 80.5755 189.562 80.7734C189.448 80.9661 189.391 81.1927 189.391 81.4531C189.391 81.7188 189.451 81.9609 189.57 82.1797C189.69 82.3984 189.87 82.5729 190.109 82.7031C190.354 82.8281 190.654 82.8906 191.008 82.8906C191.451 82.8906 191.841 82.7969 192.18 82.6094C192.518 82.4219 192.786 82.1927 192.984 81.9219C193.188 81.651 193.297 81.388 193.312 81.1328L193.93 81.8281C193.893 82.0469 193.794 82.2891 193.633 82.5547C193.471 82.8203 193.255 83.0755 192.984 83.3203C192.719 83.5599 192.401 83.7604 192.031 83.9219C191.667 84.0781 191.255 84.1562 190.797 84.1562C190.224 84.1562 189.721 84.0443 189.289 83.8203C188.862 83.5964 188.529 83.2969 188.289 82.9219C188.055 82.5417 187.938 82.1172 187.938 81.6484C187.938 81.1953 188.026 80.7969 188.203 80.4531C188.38 80.1042 188.635 79.8151 188.969 79.5859C189.302 79.3516 189.703 79.1745 190.172 79.0547C190.641 78.9349 191.164 78.875 191.742 78.875H193.422Z" fill="black"/>
<path opacity="0.64" d="M183.594 81.7578C183.594 81.5495 183.547 81.3568 183.453 81.1797C183.365 80.9974 183.18 80.8333 182.898 80.6875C182.622 80.5365 182.206 80.4062 181.648 80.2969C181.18 80.1979 180.755 80.0807 180.375 79.9453C180 79.8099 179.68 79.6458 179.414 79.4531C179.154 79.2604 178.953 79.0339 178.812 78.7734C178.672 78.513 178.602 78.2083 178.602 77.8594C178.602 77.526 178.674 77.2109 178.82 76.9141C178.971 76.6172 179.182 76.3542 179.453 76.125C179.729 75.8958 180.06 75.7161 180.445 75.5859C180.831 75.4557 181.26 75.3906 181.734 75.3906C182.411 75.3906 182.99 75.5104 183.469 75.75C183.948 75.9896 184.315 76.3099 184.57 76.7109C184.826 77.1068 184.953 77.5469 184.953 78.0312H183.508C183.508 77.7969 183.438 77.5703 183.297 77.3516C183.161 77.1276 182.961 76.9427 182.695 76.7969C182.435 76.651 182.115 76.5781 181.734 76.5781C181.333 76.5781 181.008 76.6406 180.758 76.7656C180.513 76.8854 180.333 77.0391 180.219 77.2266C180.109 77.4141 180.055 77.612 180.055 77.8203C180.055 77.9766 180.081 78.1172 180.133 78.2422C180.19 78.362 180.289 78.474 180.43 78.5781C180.57 78.6771 180.768 78.7708 181.023 78.8594C181.279 78.9479 181.604 79.0365 182 79.125C182.693 79.2812 183.263 79.4688 183.711 79.6875C184.159 79.9062 184.492 80.1745 184.711 80.4922C184.93 80.8099 185.039 81.1953 185.039 81.6484C185.039 82.0182 184.961 82.3568 184.805 82.6641C184.654 82.9714 184.432 83.237 184.141 83.4609C183.854 83.6797 183.51 83.8516 183.109 83.9766C182.714 84.0964 182.268 84.1562 181.773 84.1562C181.029 84.1562 180.398 84.0234 179.883 83.7578C179.367 83.4922 178.977 83.1484 178.711 82.7266C178.445 82.3047 178.312 81.8594 178.312 81.3906H179.766C179.786 81.7865 179.901 82.1016 180.109 82.3359C180.318 82.5651 180.573 82.7292 180.875 82.8281C181.177 82.9219 181.477 82.9688 181.773 82.9688C182.169 82.9688 182.5 82.9167 182.766 82.8125C183.036 82.7083 183.242 82.5651 183.383 82.3828C183.523 82.2005 183.594 81.9922 183.594 81.7578Z" fill="black"/>
<path opacity="0.64" d="M168.484 82.5547V78.2031C168.484 77.8698 168.417 77.5807 168.281 77.3359C168.151 77.0859 167.953 76.8932 167.688 76.7578C167.422 76.6224 167.094 76.5547 166.703 76.5547C166.339 76.5547 166.018 76.6172 165.742 76.7422C165.471 76.8672 165.258 77.0312 165.102 77.2344C164.951 77.4375 164.875 77.6562 164.875 77.8906H163.43C163.43 77.5885 163.508 77.2891 163.664 76.9922C163.82 76.6953 164.044 76.4271 164.336 76.1875C164.633 75.9427 164.987 75.75 165.398 75.6094C165.815 75.4635 166.279 75.3906 166.789 75.3906C167.404 75.3906 167.945 75.4948 168.414 75.7031C168.888 75.9115 169.258 76.2266 169.523 76.6484C169.794 77.0651 169.93 77.5885 169.93 78.2188V82.1562C169.93 82.4375 169.953 82.737 170 83.0547C170.052 83.3724 170.128 83.6458 170.227 83.875V84H168.719C168.646 83.8333 168.589 83.612 168.547 83.3359C168.505 83.0547 168.484 82.7943 168.484 82.5547ZM168.734 78.875L168.75 79.8906H167.289C166.878 79.8906 166.51 79.9245 166.188 79.9922C165.865 80.0547 165.594 80.151 165.375 80.2812C165.156 80.4115 164.99 80.5755 164.875 80.7734C164.76 80.9661 164.703 81.1927 164.703 81.4531C164.703 81.7188 164.763 81.9609 164.883 82.1797C165.003 82.3984 165.182 82.5729 165.422 82.7031C165.667 82.8281 165.966 82.8906 166.32 82.8906C166.763 82.8906 167.154 82.7969 167.492 82.6094C167.831 82.4219 168.099 82.1927 168.297 81.9219C168.5 81.651 168.609 81.388 168.625 81.1328L169.242 81.8281C169.206 82.0469 169.107 82.2891 168.945 82.5547C168.784 82.8203 168.568 83.0755 168.297 83.3203C168.031 83.5599 167.714 83.7604 167.344 83.9219C166.979 84.0781 166.568 84.1562 166.109 84.1562C165.536 84.1562 165.034 84.0443 164.602 83.8203C164.174 83.5964 163.841 83.2969 163.602 82.9219C163.367 82.5417 163.25 82.1172 163.25 81.6484C163.25 81.1953 163.339 80.7969 163.516 80.4531C163.693 80.1042 163.948 79.8151 164.281 79.5859C164.615 79.3516 165.016 79.1745 165.484 79.0547C165.953 78.9349 166.477 78.875 167.055 78.875H168.734Z" fill="black"/>
<path opacity="0.64" d="M149.656 77.2266V84H148.203V75.5469H149.578L149.656 77.2266ZM149.359 79.4531L148.688 79.4297C148.693 78.8516 148.768 78.3177 148.914 77.8281C149.06 77.3333 149.276 76.9036 149.562 76.5391C149.849 76.1745 150.206 75.8932 150.633 75.6953C151.06 75.4922 151.555 75.3906 152.117 75.3906C152.513 75.3906 152.878 75.4479 153.211 75.5625C153.544 75.6719 153.833 75.8464 154.078 76.0859C154.323 76.3255 154.513 76.6328 154.648 77.0078C154.784 77.3828 154.852 77.8359 154.852 78.3672V84H153.406V78.4375C153.406 77.9948 153.331 77.6406 153.18 77.375C153.034 77.1094 152.826 76.9167 152.555 76.7969C152.284 76.6719 151.966 76.6094 151.602 76.6094C151.174 76.6094 150.818 76.6849 150.531 76.8359C150.245 76.987 150.016 77.1953 149.844 77.4609C149.672 77.7266 149.547 78.0312 149.469 78.375C149.396 78.7135 149.359 79.0729 149.359 79.4531ZM154.836 78.6562L153.867 78.9531C153.872 78.4896 153.948 78.0443 154.094 77.6172C154.245 77.1901 154.461 76.8099 154.742 76.4766C155.029 76.1432 155.38 75.8802 155.797 75.6875C156.214 75.4896 156.69 75.3906 157.227 75.3906C157.68 75.3906 158.081 75.4505 158.43 75.5703C158.784 75.6901 159.081 75.875 159.32 76.125C159.565 76.3698 159.75 76.6849 159.875 77.0703C160 77.4557 160.062 77.9141 160.062 78.4453V84H158.609V78.4297C158.609 77.9557 158.534 77.5885 158.383 77.3281C158.237 77.0625 158.029 76.8776 157.758 76.7734C157.492 76.6641 157.174 76.6094 156.805 76.6094C156.487 76.6094 156.206 76.6641 155.961 76.7734C155.716 76.8828 155.51 77.0339 155.344 77.2266C155.177 77.4141 155.049 77.6302 154.961 77.875C154.878 78.1198 154.836 78.3802 154.836 78.6562Z" fill="black"/>
<path opacity="0.64" d="M143.25 82.5547V78.2031C143.25 77.8698 143.182 77.5807 143.047 77.3359C142.917 77.0859 142.719 76.8932 142.453 76.7578C142.188 76.6224 141.859 76.5547 141.469 76.5547C141.104 76.5547 140.784 76.6172 140.508 76.7422C140.237 76.8672 140.023 77.0312 139.867 77.2344C139.716 77.4375 139.641 77.6562 139.641 77.8906H138.195C138.195 77.5885 138.273 77.2891 138.43 76.9922C138.586 76.6953 138.81 76.4271 139.102 76.1875C139.398 75.9427 139.753 75.75 140.164 75.6094C140.581 75.4635 141.044 75.3906 141.555 75.3906C142.169 75.3906 142.711 75.4948 143.18 75.7031C143.654 75.9115 144.023 76.2266 144.289 76.6484C144.56 77.0651 144.695 77.5885 144.695 78.2188V82.1562C144.695 82.4375 144.719 82.737 144.766 83.0547C144.818 83.3724 144.893 83.6458 144.992 83.875V84H143.484C143.411 83.8333 143.354 83.612 143.312 83.3359C143.271 83.0547 143.25 82.7943 143.25 82.5547ZM143.5 78.875L143.516 79.8906H142.055C141.643 79.8906 141.276 79.9245 140.953 79.9922C140.63 80.0547 140.359 80.151 140.141 80.2812C139.922 80.4115 139.755 80.5755 139.641 80.7734C139.526 80.9661 139.469 81.1927 139.469 81.4531C139.469 81.7188 139.529 81.9609 139.648 82.1797C139.768 82.3984 139.948 82.5729 140.188 82.7031C140.432 82.8281 140.732 82.8906 141.086 82.8906C141.529 82.8906 141.919 82.7969 142.258 82.6094C142.596 82.4219 142.865 82.1927 143.062 81.9219C143.266 81.651 143.375 81.388 143.391 81.1328L144.008 81.8281C143.971 82.0469 143.872 82.2891 143.711 82.5547C143.549 82.8203 143.333 83.0755 143.062 83.3203C142.797 83.5599 142.479 83.7604 142.109 83.9219C141.745 84.0781 141.333 84.1562 140.875 84.1562C140.302 84.1562 139.799 84.0443 139.367 83.8203C138.94 83.5964 138.607 83.2969 138.367 82.9219C138.133 82.5417 138.016 82.1172 138.016 81.6484C138.016 81.1953 138.104 80.7969 138.281 80.4531C138.458 80.1042 138.714 79.8151 139.047 79.5859C139.38 79.3516 139.781 79.1745 140.25 79.0547C140.719 78.9349 141.242 78.875 141.82 78.875H143.5Z" fill="black"/>
<path opacity="0.64" d="M129.617 77.3516V84H128.172V75.5469H129.539L129.617 77.3516ZM129.273 79.4531L128.672 79.4297C128.677 78.8516 128.763 78.3177 128.93 77.8281C129.096 77.3333 129.331 76.9036 129.633 76.5391C129.935 76.1745 130.294 75.8932 130.711 75.6953C131.133 75.4922 131.599 75.3906 132.109 75.3906C132.526 75.3906 132.901 75.4479 133.234 75.5625C133.568 75.6719 133.852 75.849 134.086 76.0938C134.326 76.3385 134.508 76.6562 134.633 77.0469C134.758 77.4323 134.82 77.9036 134.82 78.4609V84H133.367V78.4453C133.367 78.0026 133.302 77.6484 133.172 77.3828C133.042 77.112 132.852 76.9167 132.602 76.7969C132.352 76.6719 132.044 76.6094 131.68 76.6094C131.32 76.6094 130.992 76.6849 130.695 76.8359C130.404 76.987 130.151 77.1953 129.938 77.4609C129.729 77.7266 129.565 78.0312 129.445 78.375C129.331 78.7135 129.273 79.0729 129.273 79.4531Z" fill="black"/>
<path opacity="0.64" d="M114.305 77.3516V84H112.859V75.5469H114.227L114.305 77.3516ZM113.961 79.4531L113.359 79.4297C113.365 78.8516 113.451 78.3177 113.617 77.8281C113.784 77.3333 114.018 76.9036 114.32 76.5391C114.622 76.1745 114.982 75.8932 115.398 75.6953C115.82 75.4922 116.286 75.3906 116.797 75.3906C117.214 75.3906 117.589 75.4479 117.922 75.5625C118.255 75.6719 118.539 75.849 118.773 76.0938C119.013 76.3385 119.195 76.6562 119.32 77.0469C119.445 77.4323 119.508 77.9036 119.508 78.4609V84H118.055V78.4453C118.055 78.0026 117.99 77.6484 117.859 77.3828C117.729 77.112 117.539 76.9167 117.289 76.7969C117.039 76.6719 116.732 76.6094 116.367 76.6094C116.008 76.6094 115.68 76.6849 115.383 76.8359C115.091 76.987 114.839 77.1953 114.625 77.4609C114.417 77.7266 114.253 78.0312 114.133 78.375C114.018 78.7135 113.961 79.0729 113.961 79.4531Z" fill="black"/>
<path opacity="0.64" d="M107.891 82.5547V78.2031C107.891 77.8698 107.823 77.5807 107.688 77.3359C107.557 77.0859 107.359 76.8932 107.094 76.7578C106.828 76.6224 106.5 76.5547 106.109 76.5547C105.745 76.5547 105.424 76.6172 105.148 76.7422C104.878 76.8672 104.664 77.0312 104.508 77.2344C104.357 77.4375 104.281 77.6562 104.281 77.8906H102.836C102.836 77.5885 102.914 77.2891 103.07 76.9922C103.227 76.6953 103.451 76.4271 103.742 76.1875C104.039 75.9427 104.393 75.75 104.805 75.6094C105.221 75.4635 105.685 75.3906 106.195 75.3906C106.81 75.3906 107.352 75.4948 107.82 75.7031C108.294 75.9115 108.664 76.2266 108.93 76.6484C109.201 77.0651 109.336 77.5885 109.336 78.2188V82.1562C109.336 82.4375 109.359 82.737 109.406 83.0547C109.458 83.3724 109.534 83.6458 109.633 83.875V84H108.125C108.052 83.8333 107.995 83.612 107.953 83.3359C107.911 83.0547 107.891 82.7943 107.891 82.5547ZM108.141 78.875L108.156 79.8906H106.695C106.284 79.8906 105.917 79.9245 105.594 79.9922C105.271 80.0547 105 80.151 104.781 80.2812C104.562 80.4115 104.396 80.5755 104.281 80.7734C104.167 80.9661 104.109 81.1927 104.109 81.4531C104.109 81.7188 104.169 81.9609 104.289 82.1797C104.409 82.3984 104.589 82.5729 104.828 82.7031C105.073 82.8281 105.372 82.8906 105.727 82.8906C106.169 82.8906 106.56 82.7969 106.898 82.6094C107.237 82.4219 107.505 82.1927 107.703 81.9219C107.906 81.651 108.016 81.388 108.031 81.1328L108.648 81.8281C108.612 82.0469 108.513 82.2891 108.352 82.5547C108.19 82.8203 107.974 83.0755 107.703 83.3203C107.438 83.5599 107.12 83.7604 106.75 83.9219C106.385 84.0781 105.974 84.1562 105.516 84.1562C104.943 84.1562 104.44 84.0443 104.008 83.8203C103.581 83.5964 103.247 83.2969 103.008 82.9219C102.773 82.5417 102.656 82.1172 102.656 81.6484C102.656 81.1953 102.745 80.7969 102.922 80.4531C103.099 80.1042 103.354 79.8151 103.688 79.5859C104.021 79.3516 104.422 79.1745 104.891 79.0547C105.359 78.9349 105.883 78.875 106.461 78.875H108.141Z" fill="black"/>
<path opacity="0.64" d="M95 72V84H93.5469V72H95ZM100.164 75.5469L96.4766 79.4922L94.4141 81.6328L94.2969 80.0938L95.7734 78.3281L98.3984 75.5469H100.164ZM98.8438 84L95.8281 79.9688L96.5781 78.6797L100.547 84H98.8438Z" fill="black"/>
<path opacity="0.64" d="M89.9766 72V84H88.5234V72H89.9766Z" fill="black"/>
<path opacity="0.64" d="M83.4375 82.5547V78.2031C83.4375 77.8698 83.3698 77.5807 83.2344 77.3359C83.1042 77.0859 82.9062 76.8932 82.6406 76.7578C82.375 76.6224 82.0469 76.5547 81.6562 76.5547C81.2917 76.5547 80.9714 76.6172 80.6953 76.7422C80.4245 76.8672 80.2109 77.0312 80.0547 77.2344C79.9036 77.4375 79.8281 77.6562 79.8281 77.8906H78.3828C78.3828 77.5885 78.4609 77.2891 78.6172 76.9922C78.7734 76.6953 78.9974 76.4271 79.2891 76.1875C79.5859 75.9427 79.9401 75.75 80.3516 75.6094C80.7682 75.4635 81.2318 75.3906 81.7422 75.3906C82.3568 75.3906 82.8984 75.4948 83.3672 75.7031C83.8411 75.9115 84.2109 76.2266 84.4766 76.6484C84.7474 77.0651 84.8828 77.5885 84.8828 78.2188V82.1562C84.8828 82.4375 84.9062 82.737 84.9531 83.0547C85.0052 83.3724 85.0807 83.6458 85.1797 83.875V84H83.6719C83.599 83.8333 83.5417 83.612 83.5 83.3359C83.4583 83.0547 83.4375 82.7943 83.4375 82.5547ZM83.6875 78.875L83.7031 79.8906H82.2422C81.8307 79.8906 81.4635 79.9245 81.1406 79.9922C80.8177 80.0547 80.5469 80.151 80.3281 80.2812C80.1094 80.4115 79.9427 80.5755 79.8281 80.7734C79.7135 80.9661 79.6562 81.1927 79.6562 81.4531C79.6562 81.7188 79.7161 81.9609 79.8359 82.1797C79.9557 82.3984 80.1354 82.5729 80.375 82.7031C80.6198 82.8281 80.9193 82.8906 81.2734 82.8906C81.7161 82.8906 82.1068 82.7969 82.4453 82.6094C82.7839 82.4219 83.0521 82.1927 83.25 81.9219C83.4531 81.651 83.5625 81.388 83.5781 81.1328L84.1953 81.8281C84.1589 82.0469 84.0599 82.2891 83.8984 82.5547C83.737 82.8203 83.5208 83.0755 83.25 83.3203C82.9844 83.5599 82.6667 83.7604 82.2969 83.9219C81.9323 84.0781 81.5208 84.1562 81.0625 84.1562C80.4896 84.1562 79.987 84.0443 79.5547 83.8203C79.1276 83.5964 78.7943 83.2969 78.5547 82.9219C78.3203 82.5417 78.2031 82.1172 78.2031 81.6484C78.2031 81.1953 78.2917 80.7969 78.4688 80.4531C78.6458 80.1042 78.901 79.8151 79.2344 79.5859C79.5677 79.3516 79.9688 79.1745 80.4375 79.0547C80.9062 78.9349 81.4297 78.875 82.0078 78.875H83.6875Z" fill="black"/>
<path opacity="0.64" d="M69.8047 77.3516V84H68.3594V75.5469H69.7266L69.8047 77.3516ZM69.4609 79.4531L68.8594 79.4297C68.8646 78.8516 68.9505 78.3177 69.1172 77.8281C69.2839 77.3333 69.5182 76.9036 69.8203 76.5391C70.1224 76.1745 70.4818 75.8932 70.8984 75.6953C71.3203 75.4922 71.7865 75.3906 72.2969 75.3906C72.7135 75.3906 73.0885 75.4479 73.4219 75.5625C73.7552 75.6719 74.0391 75.849 74.2734 76.0938C74.513 76.3385 74.6953 76.6562 74.8203 77.0469C74.9453 77.4323 75.0078 77.9036 75.0078 78.4609V84H73.5547V78.4453C73.5547 78.0026 73.4896 77.6484 73.3594 77.3828C73.2292 77.112 73.0391 76.9167 72.7891 76.7969C72.5391 76.6719 72.2318 76.6094 71.8672 76.6094C71.5078 76.6094 71.1797 76.6849 70.8828 76.8359C70.5911 76.987 70.3385 77.1953 70.125 77.4609C69.9167 77.7266 69.7526 78.0312 69.6328 78.375C69.5182 78.7135 69.4609 79.0729 69.4609 79.4531Z" fill="black"/>
<path opacity="0.64" d="M62.1328 84.1562C61.5443 84.1562 61.0104 84.0573 60.5312 83.8594C60.0573 83.6562 59.6484 83.3724 59.3047 83.0078C58.9661 82.6432 58.7057 82.2109 58.5234 81.7109C58.3411 81.2109 58.25 80.6641 58.25 80.0703V79.7422C58.25 79.0547 58.3516 78.4427 58.5547 77.9062C58.7578 77.3646 59.0339 76.9062 59.3828 76.5312C59.7318 76.1562 60.1276 75.8724 60.5703 75.6797C61.013 75.487 61.4714 75.3906 61.9453 75.3906C62.5495 75.3906 63.0703 75.4948 63.5078 75.7031C63.9505 75.9115 64.3125 76.2031 64.5938 76.5781C64.875 76.9479 65.0833 77.3854 65.2188 77.8906C65.3542 78.3906 65.4219 78.9375 65.4219 79.5312V80.1797H59.1094V79H63.9766V78.8906C63.9557 78.5156 63.8776 78.151 63.7422 77.7969C63.612 77.4427 63.4036 77.151 63.1172 76.9219C62.8307 76.6927 62.4401 76.5781 61.9453 76.5781C61.6172 76.5781 61.3151 76.6484 61.0391 76.7891C60.763 76.9245 60.526 77.1276 60.3281 77.3984C60.1302 77.6693 59.9766 78 59.8672 78.3906C59.7578 78.7812 59.7031 79.2318 59.7031 79.7422V80.0703C59.7031 80.4714 59.7578 80.849 59.8672 81.2031C59.9818 81.5521 60.1458 81.8594 60.3594 82.125C60.5781 82.3906 60.8411 82.599 61.1484 82.75C61.4609 82.901 61.8151 82.9766 62.2109 82.9766C62.7214 82.9766 63.1536 82.8724 63.5078 82.6641C63.862 82.4557 64.1719 82.1771 64.4375 81.8281L65.3125 82.5234C65.1302 82.7995 64.8984 83.0625 64.6172 83.3125C64.3359 83.5625 63.9896 83.7656 63.5781 83.9219C63.1719 84.0781 62.6901 84.1562 62.1328 84.1562Z" fill="black"/>
<path opacity="0.64" d="M50.875 72V84H49.4219V72H50.875ZM56.0391 75.5469L52.3516 79.4922L50.2891 81.6328L50.1719 80.0938L51.6484 78.3281L54.2734 75.5469H56.0391ZM54.7188 84L51.7031 79.9688L52.4531 78.6797L56.4219 84H54.7188Z" fill="black"/>
<path opacity="0.64" d="M44.1953 76.875V84H42.75V75.5469H44.1562L44.1953 76.875ZM46.8359 75.5L46.8281 76.8438C46.7083 76.8177 46.5938 76.8021 46.4844 76.7969C46.3802 76.7865 46.2604 76.7812 46.125 76.7812C45.7917 76.7812 45.4974 76.8333 45.2422 76.9375C44.987 77.0417 44.7708 77.1875 44.5938 77.375C44.4167 77.5625 44.276 77.7865 44.1719 78.0469C44.0729 78.3021 44.0078 78.5833 43.9766 78.8906L43.5703 79.125C43.5703 78.6146 43.6198 78.1354 43.7188 77.6875C43.8229 77.2396 43.9818 76.8438 44.1953 76.5C44.4089 76.151 44.6797 75.8802 45.0078 75.6875C45.3411 75.4896 45.737 75.3906 46.1953 75.3906C46.2995 75.3906 46.4193 75.4036 46.5547 75.4297C46.6901 75.4505 46.7839 75.474 46.8359 75.5Z" fill="black"/>
<path opacity="0.64" d="M36.5234 84.1562C35.9349 84.1562 35.401 84.0573 34.9219 83.8594C34.4479 83.6562 34.0391 83.3724 33.6953 83.0078C33.3568 82.6432 33.0964 82.2109 32.9141 81.7109C32.7318 81.2109 32.6406 80.6641 32.6406 80.0703V79.7422C32.6406 79.0547 32.7422 78.4427 32.9453 77.9062C33.1484 77.3646 33.4245 76.9062 33.7734 76.5312C34.1224 76.1562 34.5182 75.8724 34.9609 75.6797C35.4036 75.487 35.862 75.3906 36.3359 75.3906C36.9401 75.3906 37.4609 75.4948 37.8984 75.7031C38.3411 75.9115 38.7031 76.2031 38.9844 76.5781C39.2656 76.9479 39.474 77.3854 39.6094 77.8906C39.7448 78.3906 39.8125 78.9375 39.8125 79.5312V80.1797H33.5V79H38.3672V78.8906C38.3464 78.5156 38.2682 78.151 38.1328 77.7969C38.0026 77.4427 37.7943 77.151 37.5078 76.9219C37.2214 76.6927 36.8307 76.5781 36.3359 76.5781C36.0078 76.5781 35.7057 76.6484 35.4297 76.7891C35.1536 76.9245 34.9167 77.1276 34.7188 77.3984C34.5208 77.6693 34.3672 78 34.2578 78.3906C34.1484 78.7812 34.0938 79.2318 34.0938 79.7422V80.0703C34.0938 80.4714 34.1484 80.849 34.2578 81.2031C34.3724 81.5521 34.5365 81.8594 34.75 82.125C34.9688 82.3906 35.2318 82.599 35.5391 82.75C35.8516 82.901 36.2057 82.9766 36.6016 82.9766C37.112 82.9766 37.5443 82.8724 37.8984 82.6641C38.2526 82.4557 38.5625 82.1771 38.8281 81.8281L39.7031 82.5234C39.5208 82.7995 39.2891 83.0625 39.0078 83.3125C38.7266 83.5625 38.3802 83.7656 37.9688 83.9219C37.5625 84.0781 37.0807 84.1562 36.5234 84.1562Z" fill="black"/>
<path opacity="0.64" d="M26.1953 79.5391H23.1562V78.3125H26.1953C26.7839 78.3125 27.2604 78.2188 27.625 78.0312C27.9896 77.8438 28.2552 77.5833 28.4219 77.25C28.5938 76.9167 28.6797 76.5365 28.6797 76.1094C28.6797 75.7188 28.5938 75.3516 28.4219 75.0078C28.2552 74.6641 27.9896 74.388 27.625 74.1797C27.2604 73.9661 26.7839 73.8594 26.1953 73.8594H23.5078V84H22V72.625H26.1953C27.0547 72.625 27.7812 72.7734 28.375 73.0703C28.9688 73.3672 29.4193 73.7786 29.7266 74.3047C30.0339 74.8255 30.1875 75.4219 30.1875 76.0938C30.1875 76.8229 30.0339 77.4453 29.7266 77.9609C29.4193 78.4766 28.9688 78.8698 28.375 79.1406C27.7812 79.4062 27.0547 79.5391 26.1953 79.5391Z" fill="black"/>
<path d="M316 137C316 130.373 310.627 125 304 125H112.367C105.74 125 100.367 130.373 100.367 137V159.273C100.367 165.901 105.74 171.273 112.367 171.273H316V137Z" fill="#7B7B7B"/>
<path d="M294 141V153H292.547V141H294Z" fill="white"/>
<path d="M287.461 151.555V147.203C287.461 146.87 287.393 146.581 287.258 146.336C287.128 146.086 286.93 145.893 286.664 145.758C286.398 145.622 286.07 145.555 285.68 145.555C285.315 145.555 284.995 145.617 284.719 145.742C284.448 145.867 284.234 146.031 284.078 146.234C283.927 146.438 283.852 146.656 283.852 146.891H282.406C282.406 146.589 282.484 146.289 282.641 145.992C282.797 145.695 283.021 145.427 283.312 145.188C283.609 144.943 283.964 144.75 284.375 144.609C284.792 144.464 285.255 144.391 285.766 144.391C286.38 144.391 286.922 144.495 287.391 144.703C287.865 144.911 288.234 145.227 288.5 145.648C288.771 146.065 288.906 146.589 288.906 147.219V151.156C288.906 151.438 288.93 151.737 288.977 152.055C289.029 152.372 289.104 152.646 289.203 152.875V153H287.695C287.622 152.833 287.565 152.612 287.523 152.336C287.482 152.055 287.461 151.794 287.461 151.555ZM287.711 147.875L287.727 148.891H286.266C285.854 148.891 285.487 148.924 285.164 148.992C284.841 149.055 284.57 149.151 284.352 149.281C284.133 149.411 283.966 149.576 283.852 149.773C283.737 149.966 283.68 150.193 283.68 150.453C283.68 150.719 283.74 150.961 283.859 151.18C283.979 151.398 284.159 151.573 284.398 151.703C284.643 151.828 284.943 151.891 285.297 151.891C285.74 151.891 286.13 151.797 286.469 151.609C286.807 151.422 287.076 151.193 287.273 150.922C287.477 150.651 287.586 150.388 287.602 150.133L288.219 150.828C288.182 151.047 288.083 151.289 287.922 151.555C287.76 151.82 287.544 152.076 287.273 152.32C287.008 152.56 286.69 152.76 286.32 152.922C285.956 153.078 285.544 153.156 285.086 153.156C284.513 153.156 284.01 153.044 283.578 152.82C283.151 152.596 282.818 152.297 282.578 151.922C282.344 151.542 282.227 151.117 282.227 150.648C282.227 150.195 282.315 149.797 282.492 149.453C282.669 149.104 282.924 148.815 283.258 148.586C283.591 148.352 283.992 148.174 284.461 148.055C284.93 147.935 285.453 147.875 286.031 147.875H287.711Z" fill="white"/>
<path d="M273.828 146.352V153H272.383V144.547H273.75L273.828 146.352ZM273.484 148.453L272.883 148.43C272.888 147.852 272.974 147.318 273.141 146.828C273.307 146.333 273.542 145.904 273.844 145.539C274.146 145.174 274.505 144.893 274.922 144.695C275.344 144.492 275.81 144.391 276.32 144.391C276.737 144.391 277.112 144.448 277.445 144.562C277.779 144.672 278.062 144.849 278.297 145.094C278.536 145.339 278.719 145.656 278.844 146.047C278.969 146.432 279.031 146.904 279.031 147.461V153H277.578V147.445C277.578 147.003 277.513 146.648 277.383 146.383C277.253 146.112 277.062 145.917 276.812 145.797C276.562 145.672 276.255 145.609 275.891 145.609C275.531 145.609 275.203 145.685 274.906 145.836C274.615 145.987 274.362 146.195 274.148 146.461C273.94 146.727 273.776 147.031 273.656 147.375C273.542 147.714 273.484 148.073 273.484 148.453Z" fill="white"/>
<path d="M266.156 153.156C265.568 153.156 265.034 153.057 264.555 152.859C264.081 152.656 263.672 152.372 263.328 152.008C262.99 151.643 262.729 151.211 262.547 150.711C262.365 150.211 262.273 149.664 262.273 149.07V148.742C262.273 148.055 262.375 147.443 262.578 146.906C262.781 146.365 263.057 145.906 263.406 145.531C263.755 145.156 264.151 144.872 264.594 144.68C265.036 144.487 265.495 144.391 265.969 144.391C266.573 144.391 267.094 144.495 267.531 144.703C267.974 144.911 268.336 145.203 268.617 145.578C268.898 145.948 269.107 146.385 269.242 146.891C269.378 147.391 269.445 147.938 269.445 148.531V149.18H263.133V148H268V147.891C267.979 147.516 267.901 147.151 267.766 146.797C267.635 146.443 267.427 146.151 267.141 145.922C266.854 145.693 266.464 145.578 265.969 145.578C265.641 145.578 265.339 145.648 265.062 145.789C264.786 145.924 264.549 146.128 264.352 146.398C264.154 146.669 264 147 263.891 147.391C263.781 147.781 263.727 148.232 263.727 148.742V149.07C263.727 149.471 263.781 149.849 263.891 150.203C264.005 150.552 264.169 150.859 264.383 151.125C264.602 151.391 264.865 151.599 265.172 151.75C265.484 151.901 265.839 151.977 266.234 151.977C266.745 151.977 267.177 151.872 267.531 151.664C267.885 151.456 268.195 151.177 268.461 150.828L269.336 151.523C269.154 151.799 268.922 152.062 268.641 152.312C268.359 152.562 268.013 152.766 267.602 152.922C267.195 153.078 266.714 153.156 266.156 153.156Z" fill="white"/>
<path d="M254.898 141V153H253.445V141H254.898ZM260.062 144.547L256.375 148.492L254.312 150.633L254.195 149.094L255.672 147.328L258.297 144.547H260.062ZM258.742 153L255.727 148.969L256.477 147.68L260.445 153H258.742Z" fill="white"/>
<path d="M234.383 146.227V153H232.93V144.547H234.305L234.383 146.227ZM234.086 148.453L233.414 148.43C233.419 147.852 233.495 147.318 233.641 146.828C233.786 146.333 234.003 145.904 234.289 145.539C234.576 145.174 234.932 144.893 235.359 144.695C235.786 144.492 236.281 144.391 236.844 144.391C237.24 144.391 237.604 144.448 237.938 144.562C238.271 144.672 238.56 144.846 238.805 145.086C239.049 145.326 239.24 145.633 239.375 146.008C239.51 146.383 239.578 146.836 239.578 147.367V153H238.133V147.438C238.133 146.995 238.057 146.641 237.906 146.375C237.76 146.109 237.552 145.917 237.281 145.797C237.01 145.672 236.693 145.609 236.328 145.609C235.901 145.609 235.544 145.685 235.258 145.836C234.971 145.987 234.742 146.195 234.57 146.461C234.398 146.727 234.273 147.031 234.195 147.375C234.122 147.714 234.086 148.073 234.086 148.453ZM239.562 147.656L238.594 147.953C238.599 147.49 238.674 147.044 238.82 146.617C238.971 146.19 239.188 145.81 239.469 145.477C239.755 145.143 240.107 144.88 240.523 144.688C240.94 144.49 241.417 144.391 241.953 144.391C242.406 144.391 242.807 144.451 243.156 144.57C243.51 144.69 243.807 144.875 244.047 145.125C244.292 145.37 244.477 145.685 244.602 146.07C244.727 146.456 244.789 146.914 244.789 147.445V153H243.336V147.43C243.336 146.956 243.26 146.589 243.109 146.328C242.964 146.062 242.755 145.878 242.484 145.773C242.219 145.664 241.901 145.609 241.531 145.609C241.214 145.609 240.932 145.664 240.688 145.773C240.443 145.883 240.237 146.034 240.07 146.227C239.904 146.414 239.776 146.63 239.688 146.875C239.604 147.12 239.562 147.38 239.562 147.656Z" fill="white"/>
<path d="M227.977 151.555V147.203C227.977 146.87 227.909 146.581 227.773 146.336C227.643 146.086 227.445 145.893 227.18 145.758C226.914 145.622 226.586 145.555 226.195 145.555C225.831 145.555 225.51 145.617 225.234 145.742C224.964 145.867 224.75 146.031 224.594 146.234C224.443 146.438 224.367 146.656 224.367 146.891H222.922C222.922 146.589 223 146.289 223.156 145.992C223.312 145.695 223.536 145.427 223.828 145.188C224.125 144.943 224.479 144.75 224.891 144.609C225.307 144.464 225.771 144.391 226.281 144.391C226.896 144.391 227.438 144.495 227.906 144.703C228.38 144.911 228.75 145.227 229.016 145.648C229.286 146.065 229.422 146.589 229.422 147.219V151.156C229.422 151.438 229.445 151.737 229.492 152.055C229.544 152.372 229.62 152.646 229.719 152.875V153H228.211C228.138 152.833 228.081 152.612 228.039 152.336C227.997 152.055 227.977 151.794 227.977 151.555ZM228.227 147.875L228.242 148.891H226.781C226.37 148.891 226.003 148.924 225.68 148.992C225.357 149.055 225.086 149.151 224.867 149.281C224.648 149.411 224.482 149.576 224.367 149.773C224.253 149.966 224.195 150.193 224.195 150.453C224.195 150.719 224.255 150.961 224.375 151.18C224.495 151.398 224.674 151.573 224.914 151.703C225.159 151.828 225.458 151.891 225.812 151.891C226.255 151.891 226.646 151.797 226.984 151.609C227.323 151.422 227.591 151.193 227.789 150.922C227.992 150.651 228.102 150.388 228.117 150.133L228.734 150.828C228.698 151.047 228.599 151.289 228.438 151.555C228.276 151.82 228.06 152.076 227.789 152.32C227.523 152.56 227.206 152.76 226.836 152.922C226.471 153.078 226.06 153.156 225.602 153.156C225.029 153.156 224.526 153.044 224.094 152.82C223.667 152.596 223.333 152.297 223.094 151.922C222.859 151.542 222.742 151.117 222.742 150.648C222.742 150.195 222.831 149.797 223.008 149.453C223.185 149.104 223.44 148.815 223.773 148.586C224.107 148.352 224.508 148.174 224.977 148.055C225.445 147.935 225.969 147.875 226.547 147.875H228.227Z" fill="white"/>
<path d="M219.422 141V153H217.969V141H219.422Z" fill="white"/>
<path d="M212.883 151.555V147.203C212.883 146.87 212.815 146.581 212.68 146.336C212.549 146.086 212.352 145.893 212.086 145.758C211.82 145.622 211.492 145.555 211.102 145.555C210.737 145.555 210.417 145.617 210.141 145.742C209.87 145.867 209.656 146.031 209.5 146.234C209.349 146.438 209.273 146.656 209.273 146.891H207.828C207.828 146.589 207.906 146.289 208.062 145.992C208.219 145.695 208.443 145.427 208.734 145.188C209.031 144.943 209.385 144.75 209.797 144.609C210.214 144.464 210.677 144.391 211.188 144.391C211.802 144.391 212.344 144.495 212.812 144.703C213.286 144.911 213.656 145.227 213.922 145.648C214.193 146.065 214.328 146.589 214.328 147.219V151.156C214.328 151.438 214.352 151.737 214.398 152.055C214.451 152.372 214.526 152.646 214.625 152.875V153H213.117C213.044 152.833 212.987 152.612 212.945 152.336C212.904 152.055 212.883 151.794 212.883 151.555ZM213.133 147.875L213.148 148.891H211.688C211.276 148.891 210.909 148.924 210.586 148.992C210.263 149.055 209.992 149.151 209.773 149.281C209.555 149.411 209.388 149.576 209.273 149.773C209.159 149.966 209.102 150.193 209.102 150.453C209.102 150.719 209.161 150.961 209.281 151.18C209.401 151.398 209.581 151.573 209.82 151.703C210.065 151.828 210.365 151.891 210.719 151.891C211.161 151.891 211.552 151.797 211.891 151.609C212.229 151.422 212.497 151.193 212.695 150.922C212.898 150.651 213.008 150.388 213.023 150.133L213.641 150.828C213.604 151.047 213.505 151.289 213.344 151.555C213.182 151.82 212.966 152.076 212.695 152.32C212.43 152.56 212.112 152.76 211.742 152.922C211.378 153.078 210.966 153.156 210.508 153.156C209.935 153.156 209.432 153.044 209 152.82C208.573 152.596 208.24 152.297 208 151.922C207.766 151.542 207.648 151.117 207.648 150.648C207.648 150.195 207.737 149.797 207.914 149.453C208.091 149.104 208.346 148.815 208.68 148.586C209.013 148.352 209.414 148.174 209.883 148.055C210.352 147.935 210.875 147.875 211.453 147.875H213.133Z" fill="white"/>
<path d="M203.305 150.758C203.305 150.549 203.258 150.357 203.164 150.18C203.076 149.997 202.891 149.833 202.609 149.688C202.333 149.536 201.917 149.406 201.359 149.297C200.891 149.198 200.466 149.081 200.086 148.945C199.711 148.81 199.391 148.646 199.125 148.453C198.865 148.26 198.664 148.034 198.523 147.773C198.383 147.513 198.312 147.208 198.312 146.859C198.312 146.526 198.385 146.211 198.531 145.914C198.682 145.617 198.893 145.354 199.164 145.125C199.44 144.896 199.771 144.716 200.156 144.586C200.542 144.456 200.971 144.391 201.445 144.391C202.122 144.391 202.701 144.51 203.18 144.75C203.659 144.99 204.026 145.31 204.281 145.711C204.536 146.107 204.664 146.547 204.664 147.031H203.219C203.219 146.797 203.148 146.57 203.008 146.352C202.872 146.128 202.672 145.943 202.406 145.797C202.146 145.651 201.826 145.578 201.445 145.578C201.044 145.578 200.719 145.641 200.469 145.766C200.224 145.885 200.044 146.039 199.93 146.227C199.82 146.414 199.766 146.612 199.766 146.82C199.766 146.977 199.792 147.117 199.844 147.242C199.901 147.362 200 147.474 200.141 147.578C200.281 147.677 200.479 147.771 200.734 147.859C200.99 147.948 201.315 148.036 201.711 148.125C202.404 148.281 202.974 148.469 203.422 148.688C203.87 148.906 204.203 149.174 204.422 149.492C204.641 149.81 204.75 150.195 204.75 150.648C204.75 151.018 204.672 151.357 204.516 151.664C204.365 151.971 204.143 152.237 203.852 152.461C203.565 152.68 203.221 152.852 202.82 152.977C202.424 153.096 201.979 153.156 201.484 153.156C200.74 153.156 200.109 153.023 199.594 152.758C199.078 152.492 198.688 152.148 198.422 151.727C198.156 151.305 198.023 150.859 198.023 150.391H199.477C199.497 150.786 199.612 151.102 199.82 151.336C200.029 151.565 200.284 151.729 200.586 151.828C200.888 151.922 201.188 151.969 201.484 151.969C201.88 151.969 202.211 151.917 202.477 151.812C202.747 151.708 202.953 151.565 203.094 151.383C203.234 151.201 203.305 150.992 203.305 150.758Z" fill="white"/>
<path d="M190.07 151.281V152.445C190.07 152.919 189.951 153.419 189.711 153.945C189.471 154.477 189.135 154.919 188.703 155.273L187.883 154.703C188.049 154.474 188.19 154.24 188.305 154C188.419 153.766 188.505 153.521 188.562 153.266C188.625 153.016 188.656 152.75 188.656 152.469V151.281H190.07Z" fill="white"/>
<path d="M183.789 151.555V147.203C183.789 146.87 183.721 146.581 183.586 146.336C183.456 146.086 183.258 145.893 182.992 145.758C182.727 145.622 182.398 145.555 182.008 145.555C181.643 145.555 181.323 145.617 181.047 145.742C180.776 145.867 180.562 146.031 180.406 146.234C180.255 146.438 180.18 146.656 180.18 146.891H178.734C178.734 146.589 178.812 146.289 178.969 145.992C179.125 145.695 179.349 145.427 179.641 145.188C179.938 144.943 180.292 144.75 180.703 144.609C181.12 144.464 181.583 144.391 182.094 144.391C182.708 144.391 183.25 144.495 183.719 144.703C184.193 144.911 184.562 145.227 184.828 145.648C185.099 146.065 185.234 146.589 185.234 147.219V151.156C185.234 151.438 185.258 151.737 185.305 152.055C185.357 152.372 185.432 152.646 185.531 152.875V153H184.023C183.951 152.833 183.893 152.612 183.852 152.336C183.81 152.055 183.789 151.794 183.789 151.555ZM184.039 147.875L184.055 148.891H182.594C182.182 148.891 181.815 148.924 181.492 148.992C181.169 149.055 180.898 149.151 180.68 149.281C180.461 149.411 180.294 149.576 180.18 149.773C180.065 149.966 180.008 150.193 180.008 150.453C180.008 150.719 180.068 150.961 180.188 151.18C180.307 151.398 180.487 151.573 180.727 151.703C180.971 151.828 181.271 151.891 181.625 151.891C182.068 151.891 182.458 151.797 182.797 151.609C183.135 151.422 183.404 151.193 183.602 150.922C183.805 150.651 183.914 150.388 183.93 150.133L184.547 150.828C184.51 151.047 184.411 151.289 184.25 151.555C184.089 151.82 183.872 152.076 183.602 152.32C183.336 152.56 183.018 152.76 182.648 152.922C182.284 153.078 181.872 153.156 181.414 153.156C180.841 153.156 180.339 153.044 179.906 152.82C179.479 152.596 179.146 152.297 178.906 151.922C178.672 151.542 178.555 151.117 178.555 150.648C178.555 150.195 178.643 149.797 178.82 149.453C178.997 149.104 179.253 148.815 179.586 148.586C179.919 148.352 180.32 148.174 180.789 148.055C181.258 147.935 181.781 147.875 182.359 147.875H184.039Z" fill="white"/>
<path d="M169.234 141.625V153H167.727V141.625H169.234ZM176.102 141.625L171.375 146.93L168.719 149.688L168.469 148.078L170.469 145.875L174.289 141.625H176.102ZM174.648 153L170.438 147.453L171.336 146.258L176.445 153H174.648Z" fill="white"/>
<path d="M151.531 148.867V148.688C151.531 148.078 151.62 147.513 151.797 146.992C151.974 146.466 152.229 146.01 152.562 145.625C152.896 145.234 153.299 144.932 153.773 144.719C154.247 144.5 154.779 144.391 155.367 144.391C155.961 144.391 156.495 144.5 156.969 144.719C157.448 144.932 157.854 145.234 158.188 145.625C158.526 146.01 158.784 146.466 158.961 146.992C159.138 147.513 159.227 148.078 159.227 148.688V148.867C159.227 149.477 159.138 150.042 158.961 150.562C158.784 151.083 158.526 151.539 158.188 151.93C157.854 152.315 157.451 152.617 156.977 152.836C156.508 153.049 155.977 153.156 155.383 153.156C154.789 153.156 154.255 153.049 153.781 152.836C153.307 152.617 152.901 152.315 152.562 151.93C152.229 151.539 151.974 151.083 151.797 150.562C151.62 150.042 151.531 149.477 151.531 148.867ZM152.977 148.688V148.867C152.977 149.289 153.026 149.688 153.125 150.062C153.224 150.432 153.372 150.76 153.57 151.047C153.773 151.333 154.026 151.56 154.328 151.727C154.63 151.888 154.982 151.969 155.383 151.969C155.779 151.969 156.125 151.888 156.422 151.727C156.724 151.56 156.974 151.333 157.172 151.047C157.37 150.76 157.518 150.432 157.617 150.062C157.721 149.688 157.773 149.289 157.773 148.867V148.688C157.773 148.271 157.721 147.878 157.617 147.508C157.518 147.133 157.367 146.802 157.164 146.516C156.966 146.224 156.716 145.995 156.414 145.828C156.117 145.661 155.768 145.578 155.367 145.578C154.971 145.578 154.622 145.661 154.32 145.828C154.023 145.995 153.773 146.224 153.57 146.516C153.372 146.802 153.224 147.133 153.125 147.508C153.026 147.878 152.977 148.271 152.977 148.688Z" fill="white"/>
<path d="M148.344 141V153H146.891V141H148.344Z" fill="white"/>
<path d="M141.805 151.555V147.203C141.805 146.87 141.737 146.581 141.602 146.336C141.471 146.086 141.273 145.893 141.008 145.758C140.742 145.622 140.414 145.555 140.023 145.555C139.659 145.555 139.339 145.617 139.062 145.742C138.792 145.867 138.578 146.031 138.422 146.234C138.271 146.438 138.195 146.656 138.195 146.891H136.75C136.75 146.589 136.828 146.289 136.984 145.992C137.141 145.695 137.365 145.427 137.656 145.188C137.953 144.943 138.307 144.75 138.719 144.609C139.135 144.464 139.599 144.391 140.109 144.391C140.724 144.391 141.266 144.495 141.734 144.703C142.208 144.911 142.578 145.227 142.844 145.648C143.115 146.065 143.25 146.589 143.25 147.219V151.156C143.25 151.438 143.273 151.737 143.32 152.055C143.372 152.372 143.448 152.646 143.547 152.875V153H142.039C141.966 152.833 141.909 152.612 141.867 152.336C141.826 152.055 141.805 151.794 141.805 151.555ZM142.055 147.875L142.07 148.891H140.609C140.198 148.891 139.831 148.924 139.508 148.992C139.185 149.055 138.914 149.151 138.695 149.281C138.477 149.411 138.31 149.576 138.195 149.773C138.081 149.966 138.023 150.193 138.023 150.453C138.023 150.719 138.083 150.961 138.203 151.18C138.323 151.398 138.503 151.573 138.742 151.703C138.987 151.828 139.286 151.891 139.641 151.891C140.083 151.891 140.474 151.797 140.812 151.609C141.151 151.422 141.419 151.193 141.617 150.922C141.82 150.651 141.93 150.388 141.945 150.133L142.562 150.828C142.526 151.047 142.427 151.289 142.266 151.555C142.104 151.82 141.888 152.076 141.617 152.32C141.352 152.56 141.034 152.76 140.664 152.922C140.299 153.078 139.888 153.156 139.43 153.156C138.857 153.156 138.354 153.044 137.922 152.82C137.495 152.596 137.161 152.297 136.922 151.922C136.688 151.542 136.57 151.117 136.57 150.648C136.57 150.195 136.659 149.797 136.836 149.453C137.013 149.104 137.268 148.815 137.602 148.586C137.935 148.352 138.336 148.174 138.805 148.055C139.273 147.935 139.797 147.875 140.375 147.875H142.055Z" fill="white"/>
<path d="M131.797 146.516V147.742H125.641V146.516H131.797ZM125.875 141.625V153H124.367V141.625H125.875ZM133.109 141.625V153H131.609V141.625H133.109Z" fill="white"/>
</svg>
