<svg width="70" height="20" viewBox="0 0 70 20" fill="none" xmlns="http://www.w3.org/2000/svg">
<g clip-path="url(#clip0_6_2)">
<path d="M62 0H8C3.58172 0 0 3.58172 0 8V12C0 16.4183 3.58172 20 8 20H62C66.4183 20 70 16.4183 70 12V8C70 3.58172 66.4183 0 62 0Z" fill="#FF2020"/>
<path d="M56.5693 13.8841C56.0721 13.8841 55.6218 13.7562 55.2184 13.5005C54.8178 13.242 54.4997 12.8628 54.2639 12.3628C54.0309 11.8599 53.9144 11.2434 53.9144 10.5133C53.9144 9.76333 54.0352 9.13975 54.2766 8.64259C54.5181 8.14259 54.8391 7.76901 55.2397 7.52185C55.6431 7.27185 56.0849 7.14685 56.565 7.14685C56.9315 7.14685 57.2369 7.20935 57.4812 7.33435C57.7283 7.45651 57.9272 7.60992 58.0778 7.79458C58.2312 7.9764 58.3477 8.15537 58.4272 8.33151H58.4826V5.05026H60.2937V13.7775H58.5039V12.7292H58.4272C58.342 12.9111 58.2212 13.0915 58.065 13.2704C57.9116 13.4466 57.7113 13.5929 57.4641 13.7094C57.2198 13.8258 56.9215 13.8841 56.5693 13.8841ZM57.1445 12.4395C57.4372 12.4395 57.6843 12.3599 57.886 12.2008C58.0906 12.0389 58.2468 11.813 58.3548 11.5233C58.4656 11.2335 58.521 10.894 58.521 10.5048C58.521 10.1156 58.467 9.77753 58.359 9.4906C58.2511 9.20367 58.0948 8.98208 57.8903 8.82583C57.6857 8.66958 57.4372 8.59145 57.1445 8.59145C56.8462 8.59145 56.5948 8.67242 56.3903 8.83435C56.1857 8.99628 56.0309 9.22072 55.9258 9.50765C55.8207 9.79458 55.7681 10.127 55.7681 10.5048C55.7681 10.8855 55.8207 11.2221 55.9258 11.5147C56.0337 11.8045 56.1886 12.0318 56.3903 12.1966C56.5948 12.3585 56.8462 12.4395 57.1445 12.4395Z" fill="#FFE0E0"/>
<path d="M49.9683 13.9054C49.2951 13.9054 48.7155 13.769 48.2297 13.4963C47.7468 13.2207 47.3746 12.8315 47.1132 12.3287C46.8519 11.823 46.7212 11.225 46.7212 10.5346C46.7212 9.86134 46.8519 9.27043 47.1132 8.76191C47.3746 8.25339 47.7425 7.85708 48.2169 7.57299C48.6942 7.2889 49.2539 7.14685 49.8959 7.14685C50.3277 7.14685 50.7297 7.21645 51.1019 7.35566C51.4769 7.49202 51.8036 7.69799 52.082 7.97356C52.3632 8.24913 52.582 8.59572 52.7382 9.01333C52.8945 9.4281 52.9726 9.9139 52.9726 10.4707V10.9693H47.4456V9.8443H51.2638C51.2638 9.58293 51.207 9.3514 51.0933 9.14969C50.9797 8.94799 50.822 8.79032 50.6203 8.67668C50.4215 8.5602 50.1899 8.50197 49.9257 8.50197C49.6502 8.50197 49.4059 8.56589 49.1928 8.69373C48.9826 8.81873 48.8178 8.98776 48.6985 9.20083C48.5791 9.41106 48.5181 9.64543 48.5152 9.90395V10.9736C48.5152 11.2974 48.5749 11.5773 48.6942 11.813C48.8164 12.0488 48.9882 12.2307 49.2098 12.3585C49.4314 12.4863 49.6942 12.5503 49.9982 12.5503C50.1999 12.5503 50.3845 12.5219 50.5522 12.465C50.7198 12.4082 50.8632 12.323 50.9826 12.2094C51.1019 12.0957 51.1928 11.9565 51.2553 11.7917L52.9343 11.9025C52.849 12.3059 52.6743 12.6582 52.4101 12.9594C52.1487 13.2576 51.8107 13.4906 51.3959 13.6582C50.984 13.823 50.5081 13.9054 49.9683 13.9054Z" fill="#FFE0E0"/>
<path d="M45.8733 7.23208V8.59572H41.9315V7.23208H45.8733ZM42.8264 5.6639H44.6417V11.7662C44.6417 11.9338 44.6673 12.0645 44.7184 12.1582C44.7696 12.2491 44.8406 12.313 44.9315 12.35C45.0253 12.3869 45.1332 12.4054 45.2554 12.4054C45.3406 12.4054 45.4258 12.3983 45.5111 12.3841C45.5963 12.367 45.6616 12.3542 45.7071 12.3457L45.9926 13.6966C45.9017 13.725 45.7738 13.7576 45.6091 13.7946C45.4443 13.8344 45.244 13.8585 45.0082 13.867C44.5707 13.8841 44.1872 13.8258 43.8577 13.6923C43.5309 13.5588 43.2767 13.3514 43.0949 13.0701C42.913 12.7889 42.8236 12.4338 42.8264 12.0048V5.6639Z" fill="#FFE0E0"/>
<path d="M38.3061 13.9054C37.6356 13.9054 37.0589 13.7633 36.5759 13.4792C36.0958 13.1923 35.7265 12.7946 35.468 12.2861C35.2123 11.7775 35.0845 11.1923 35.0845 10.5304C35.0845 9.85992 35.2137 9.27185 35.4723 8.76617C35.7336 8.25765 36.1044 7.86134 36.5845 7.57725C37.0646 7.29032 37.6356 7.14685 38.2975 7.14685C38.8686 7.14685 39.3686 7.25055 39.7975 7.45793C40.2265 7.66532 40.566 7.95651 40.816 8.33151C41.066 8.70651 41.2038 9.14685 41.2294 9.65253H39.5163C39.468 9.32583 39.3402 9.06305 39.1328 8.86418C38.9282 8.66248 38.6598 8.56163 38.3274 8.56163C38.0461 8.56163 37.8004 8.63833 37.5902 8.79174C37.3828 8.94231 37.2208 9.16248 37.1044 9.45225C36.9879 9.74202 36.9296 10.0929 36.9296 10.5048C36.9296 10.9224 36.9865 11.2775 37.1001 11.5701C37.2166 11.8628 37.3799 12.0858 37.5902 12.2392C37.8004 12.3926 38.0461 12.4693 38.3274 12.4693C38.5348 12.4693 38.7208 12.4267 38.8856 12.3415C39.0532 12.2562 39.191 12.1326 39.299 11.9707C39.4098 11.8059 39.4822 11.6085 39.5163 11.3784H41.2294C41.2009 11.8784 41.0646 12.3187 40.8203 12.6994C40.5788 13.0773 40.245 13.3727 39.8188 13.5858C39.3927 13.7988 38.8884 13.9054 38.3061 13.9054Z" fill="#FFE0E0"/>
<path d="M31.1598 13.9054C30.4865 13.9054 29.9069 13.769 29.4211 13.4963C28.9382 13.2207 28.566 12.8315 28.3046 12.3287C28.0433 11.823 27.9126 11.225 27.9126 10.5346C27.9126 9.86134 28.0433 9.27043 28.3046 8.76191C28.566 8.25339 28.9339 7.85708 29.4083 7.57299C29.8856 7.2889 30.4453 7.14685 31.0873 7.14685C31.5191 7.14685 31.9211 7.21645 32.2933 7.35566C32.6683 7.49202 32.995 7.69799 33.2734 7.97356C33.5546 8.24913 33.7734 8.59572 33.9296 9.01333C34.0859 9.4281 34.164 9.9139 34.164 10.4707V10.9693H28.637V9.8443H32.4552C32.4552 9.58293 32.3984 9.3514 32.2848 9.14969C32.1711 8.94799 32.0134 8.79032 31.8117 8.67668C31.6129 8.5602 31.3813 8.50197 31.1171 8.50197C30.8416 8.50197 30.5973 8.56589 30.3842 8.69373C30.174 8.81873 30.0092 8.98776 29.8899 9.20083C29.7706 9.41106 29.7095 9.64543 29.7066 9.90395V10.9736C29.7066 11.2974 29.7663 11.5773 29.8856 11.813C30.0078 12.0488 30.1796 12.2307 30.4012 12.3585C30.6228 12.4863 30.8856 12.5503 31.1896 12.5503C31.3913 12.5503 31.5759 12.5219 31.7436 12.465C31.9112 12.4082 32.0546 12.323 32.174 12.2094C32.2933 12.0957 32.3842 11.9565 32.4467 11.7917L34.1257 11.9025C34.0404 12.3059 33.8657 12.6582 33.6015 12.9594C33.3402 13.2576 33.0021 13.4906 32.5873 13.6582C32.1754 13.823 31.6995 13.9054 31.1598 13.9054Z" fill="#FFE0E0"/>
<path d="M24.9073 7.23208H26.7227V14.1014C26.7227 14.6071 26.6233 15.0162 26.4244 15.3287C26.2255 15.6412 25.94 15.8699 25.5679 16.0148C25.1985 16.1596 24.7568 16.2321 24.2426 16.2321C24.1801 16.2321 24.1204 16.2307 24.0636 16.2278C24.0039 16.2278 23.9414 16.2264 23.8761 16.2236V14.8045C23.9244 14.8074 23.967 14.8088 24.0039 14.8088C24.038 14.8116 24.075 14.813 24.1147 14.813C24.4073 14.813 24.6119 14.7505 24.7284 14.6255C24.8477 14.5034 24.9073 14.3187 24.9073 14.0716V7.23208ZM25.8108 6.38833C25.5437 6.38833 25.3136 6.29884 25.1204 6.11986C24.9272 5.93805 24.8306 5.72072 24.8306 5.46787C24.8306 5.21787 24.9272 5.00339 25.1204 4.82441C25.3136 4.64259 25.5437 4.55168 25.8108 4.55168C26.0835 4.55168 26.315 4.64259 26.5054 4.82441C26.6985 5.00339 26.7951 5.21787 26.7951 5.46787C26.7951 5.72072 26.6985 5.93805 26.5054 6.11986C26.315 6.29884 26.0835 6.38833 25.8108 6.38833Z" fill="#FFE0E0"/>
<path d="M20.7184 13.9054C20.0451 13.9054 19.4655 13.769 18.9797 13.4963C18.4968 13.2207 18.1246 12.8315 17.8632 12.3287C17.6019 11.823 17.4712 11.225 17.4712 10.5346C17.4712 9.86134 17.6019 9.27043 17.8632 8.76191C18.1246 8.25339 18.4925 7.85708 18.9669 7.57299C19.4442 7.2889 20.0039 7.14685 20.6459 7.14685C21.0777 7.14685 21.4797 7.21645 21.8519 7.35566C22.2269 7.49202 22.5536 7.69799 22.832 7.97356C23.1132 8.24913 23.332 8.59572 23.4882 9.01333C23.6445 9.4281 23.7226 9.9139 23.7226 10.4707V10.9693H18.1956V9.8443H22.0138C22.0138 9.58293 21.957 9.3514 21.8434 9.14969C21.7297 8.94799 21.572 8.79032 21.3703 8.67668C21.1715 8.5602 20.9399 8.50197 20.6757 8.50197C20.4002 8.50197 20.1559 8.56589 19.9428 8.69373C19.7326 8.81873 19.5678 8.98776 19.4485 9.20083C19.3291 9.41106 19.2681 9.64543 19.2652 9.90395V10.9736C19.2652 11.2974 19.3249 11.5773 19.4442 11.813C19.5664 12.0488 19.7382 12.2307 19.9598 12.3585C20.1814 12.4863 20.4442 12.5503 20.7482 12.5503C20.9499 12.5503 21.1345 12.5219 21.3022 12.465C21.4698 12.4082 21.6132 12.323 21.7326 12.2094C21.8519 12.0957 21.9428 11.9565 22.0053 11.7917L23.6843 11.9025C23.599 12.3059 23.4243 12.6582 23.1601 12.9594C22.8987 13.2576 22.5607 13.4906 22.1459 13.6582C21.734 13.823 21.2581 13.9054 20.7184 13.9054Z" fill="#FFE0E0"/>
<path d="M10 13.7775V5.05026H13.4432C14.1023 5.05026 14.6648 5.16816 15.1307 5.40395C15.5994 5.63691 15.956 5.96787 16.2003 6.39685C16.4474 6.82299 16.571 7.32441 16.571 7.90111C16.571 8.48066 16.446 8.97924 16.196 9.39685C15.946 9.81162 15.5838 10.1298 15.1094 10.3514C14.6378 10.573 14.0668 10.6838 13.3963 10.6838H11.0909V9.20083H13.098C13.4503 9.20083 13.7429 9.15253 13.9759 9.05594C14.2088 8.95935 14.3821 8.81447 14.4957 8.62128C14.6122 8.4281 14.6705 8.18804 14.6705 7.90111C14.6705 7.61134 14.6122 7.36702 14.4957 7.16816C14.3821 6.96929 14.2074 6.81873 13.9716 6.71645C13.7386 6.61134 13.4446 6.55878 13.0895 6.55878H11.8452V13.7775H10ZM14.7131 9.80594L16.8821 13.7775H14.8452L12.723 9.80594H14.7131Z" fill="#FFE0E0"/>
</g>
<defs>
<clipPath id="clip0_6_2">
<rect width="70" height="20" fill="white"/>
</clipPath>
</defs>
</svg>
