<svg width="70" height="20" viewBox="0 0 70 20" fill="none" xmlns="http://www.w3.org/2000/svg">
<g clip-path="url(#clip0_6_5)">
<path d="M62 0H8C3.58172 0 0 3.58172 0 8V12C0 16.4183 3.58172 20 8 20H62C66.4183 20 70 16.4183 70 12V8C70 3.58172 66.4183 0 62 0Z" fill="#009810"/>
<path d="M46.5035 13.9054C45.8302 13.9054 45.2507 13.769 44.7649 13.4963C44.2819 13.2207 43.9098 12.8315 43.6484 12.3287C43.387 11.823 43.2563 11.225 43.2563 10.5346C43.2563 9.86134 43.387 9.27043 43.6484 8.76191C43.9098 8.25339 44.2777 7.85708 44.7521 7.57299C45.2294 7.2889 45.789 7.14685 46.4311 7.14685C46.8629 7.14685 47.2649 7.21645 47.637 7.35566C48.012 7.49202 48.3387 7.69799 48.6171 7.97356C48.8984 8.24912 49.1171 8.59572 49.2734 9.01333C49.4296 9.4281 49.5078 9.9139 49.5078 10.4707V10.9693H43.9808V9.84429H47.799C47.799 9.58293 47.7421 9.3514 47.6285 9.14969C47.5149 8.94799 47.3572 8.79032 47.1555 8.67668C46.9566 8.5602 46.7251 8.50197 46.4609 8.50197C46.1853 8.50197 45.941 8.56589 45.7279 8.69373C45.5177 8.81873 45.3529 8.98776 45.2336 9.20083C45.1143 9.41106 45.0532 9.64543 45.0504 9.90395V10.9736C45.0504 11.2974 45.11 11.5772 45.2294 11.813C45.3515 12.0488 45.5234 12.2307 45.745 12.3585C45.9666 12.4863 46.2294 12.5503 46.5333 12.5503C46.735 12.5503 46.9197 12.5219 47.0873 12.465C47.2549 12.4082 47.3984 12.323 47.5177 12.2094C47.637 12.0957 47.7279 11.9565 47.7904 11.7917L49.4694 11.9025C49.3842 12.3059 49.2095 12.6582 48.9453 12.9594C48.6839 13.2576 48.3458 13.4906 47.9311 13.6582C47.5191 13.823 47.0433 13.9054 46.5035 13.9054Z" fill="#DBFFDE"/>
<path d="M37.8711 9.99344V13.7775H36.0558V7.23208H37.7859V8.38691H37.8626C38.0075 8.00623 38.2504 7.70509 38.5913 7.4835C38.9322 7.25907 39.3456 7.14685 39.8314 7.14685C40.2859 7.14685 40.6822 7.24628 41.0203 7.44515C41.3583 7.64401 41.6211 7.9281 41.8086 8.29742C41.9961 8.6639 42.0899 9.1014 42.0899 9.60992V13.7775H40.2745V9.93378C40.2774 9.53322 40.1751 9.22072 39.9677 8.99628C39.7603 8.76901 39.4748 8.65537 39.1112 8.65537C38.8669 8.65537 38.651 8.70793 38.4635 8.81304C38.2788 8.91816 38.1339 9.07157 38.0288 9.27327C37.9265 9.47214 37.874 9.71219 37.8711 9.99344Z" fill="#DBFFDE"/>
<path d="M31.6537 13.9054C30.9918 13.9054 30.4193 13.7647 29.9364 13.4835C29.4563 13.1994 29.0855 12.8045 28.8242 12.2988C28.5628 11.7903 28.4321 11.2008 28.4321 10.5304C28.4321 9.85424 28.5628 9.26333 28.8242 8.75765C29.0855 8.24912 29.4563 7.85424 29.9364 7.57299C30.4193 7.2889 30.9918 7.14685 31.6537 7.14685C32.3157 7.14685 32.8867 7.2889 33.3668 7.57299C33.8497 7.85424 34.2219 8.24912 34.4833 8.75765C34.7446 9.26333 34.8753 9.85424 34.8753 10.5304C34.8753 11.2008 34.7446 11.7903 34.4833 12.2988C34.2219 12.8045 33.8497 13.1994 33.3668 13.4835C32.8867 13.7647 32.3157 13.9054 31.6537 13.9054ZM31.6622 12.4991C31.9634 12.4991 32.2148 12.4139 32.4165 12.2434C32.6182 12.0701 32.7702 11.8344 32.8725 11.5361C32.9776 11.2378 33.0301 10.8983 33.0301 10.5176C33.0301 10.1369 32.9776 9.79742 32.8725 9.49912C32.7702 9.20083 32.6182 8.96503 32.4165 8.79174C32.2148 8.61844 31.9634 8.53179 31.6622 8.53179C31.3583 8.53179 31.1026 8.61844 30.8952 8.79174C30.6907 8.96503 30.5358 9.20083 30.4307 9.49912C30.3284 9.79742 30.2773 10.1369 30.2773 10.5176C30.2773 10.8983 30.3284 11.2378 30.4307 11.5361C30.5358 11.8344 30.6907 12.0701 30.8952 12.2434C31.1026 12.4139 31.3583 12.4991 31.6622 12.4991Z" fill="#DBFFDE"/>
<path d="M23.0938 13.7775H20V5.05026H23.1193C23.9972 5.05026 24.7528 5.22498 25.3864 5.57441C26.0199 5.921 26.5071 6.41958 26.848 7.07015C27.1918 7.72072 27.3636 8.49912 27.3636 9.40537C27.3636 10.3145 27.1918 11.0957 26.848 11.7491C26.5071 12.4025 26.017 12.904 25.3778 13.2534C24.7415 13.6028 23.9801 13.7775 23.0938 13.7775ZM21.8452 12.1966H23.017C23.5625 12.1966 24.0213 12.1 24.3935 11.9068C24.7685 11.7108 25.0497 11.4082 25.2372 10.9991C25.4276 10.5872 25.5227 10.0559 25.5227 9.40537C25.5227 8.76049 25.4276 8.2335 25.2372 7.82441C25.0497 7.41532 24.7699 7.11418 24.3977 6.921C24.0256 6.72782 23.5668 6.63123 23.0213 6.63123H21.8452V12.1966Z" fill="#DBFFDE"/>
</g>
<defs>
<clipPath id="clip0_6_5">
<rect width="70" height="20" fill="white"/>
</clipPath>
</defs>
</svg>
