<svg width="70" height="20" viewBox="0 0 70 20" fill="none" xmlns="http://www.w3.org/2000/svg">
<g clip-path="url(#clip0_6_8)">
<path d="M62 0H8C3.58172 0 0 3.58172 0 8V12C0 16.4183 3.58172 20 8 20H62C66.4183 20 70 16.4183 70 12V8C70 3.58172 66.4183 0 62 0Z" fill="#201D67"/>
<path d="M59.4255 13.8841C58.9283 13.8841 58.478 13.7562 58.0746 13.5005C57.674 13.242 57.3559 12.8628 57.1201 12.3628C56.8871 11.8599 56.7706 11.2434 56.7706 10.5133C56.7706 9.76333 56.8914 9.13975 57.1328 8.64259C57.3743 8.14259 57.6953 7.76901 58.0959 7.52185C58.4993 7.27185 58.9411 7.14685 59.4212 7.14685C59.7877 7.14685 60.0931 7.20935 60.3374 7.33435C60.5845 7.45651 60.7834 7.60992 60.934 7.79458C61.0874 7.9764 61.2039 8.15537 61.2834 8.33151H61.3388V5.05026H63.1499V13.7775H61.3601V12.7292H61.2834C61.1982 12.9111 61.0774 13.0915 60.9212 13.2704C60.7678 13.4466 60.5675 13.5929 60.3203 13.7094C60.076 13.8258 59.7777 13.8841 59.4255 13.8841ZM60.0007 12.4395C60.2934 12.4395 60.5405 12.3599 60.7422 12.2008C60.9468 12.0389 61.103 11.813 61.211 11.5233C61.3218 11.2335 61.3772 10.894 61.3772 10.5048C61.3772 10.1156 61.3232 9.77753 61.2152 9.4906C61.1073 9.20367 60.951 8.98208 60.7465 8.82583C60.5419 8.66958 60.2934 8.59145 60.0007 8.59145C59.7024 8.59145 59.451 8.67242 59.2465 8.83435C59.0419 8.99628 58.8871 9.22072 58.782 9.50765C58.6769 9.79458 58.6243 10.127 58.6243 10.5048C58.6243 10.8855 58.6769 11.2221 58.782 11.5147C58.8899 11.8045 59.0448 12.0318 59.2465 12.1966C59.451 12.3585 59.7024 12.4395 60.0007 12.4395Z" fill="#CECDF1"/>
<path d="M52.8246 13.9054C52.1513 13.9054 51.5717 13.769 51.0859 13.4963C50.603 13.2207 50.2308 12.8315 49.9694 12.3287C49.7081 11.823 49.5774 11.225 49.5774 10.5346C49.5774 9.86134 49.7081 9.27043 49.9694 8.76191C50.2308 8.25338 50.5987 7.85708 51.0731 7.57299C51.5504 7.2889 52.1101 7.14685 52.7521 7.14685C53.1839 7.14685 53.5859 7.21645 53.9581 7.35566C54.3331 7.49202 54.6598 7.69799 54.9382 7.97356C55.2194 8.24912 55.4382 8.59571 55.5944 9.01333C55.7507 9.4281 55.8288 9.9139 55.8288 10.4707V10.9693H50.3018V9.84429H54.12C54.12 9.58293 54.0632 9.3514 53.9496 9.14969C53.8359 8.94799 53.6782 8.79032 53.4765 8.67668C53.2777 8.5602 53.0461 8.50196 52.7819 8.50196C52.5064 8.50196 52.2621 8.56588 52.049 8.69373C51.8388 8.81873 51.674 8.98776 51.5547 9.20083C51.4353 9.41105 51.3743 9.64543 51.3714 9.90395V10.9736C51.3714 11.2974 51.4311 11.5772 51.5504 11.813C51.6726 12.0488 51.8444 12.2307 52.066 12.3585C52.2876 12.4863 52.5504 12.5503 52.8544 12.5503C53.0561 12.5503 53.2407 12.5219 53.4084 12.465C53.576 12.4082 53.7194 12.323 53.8388 12.2094C53.9581 12.0957 54.049 11.9565 54.1115 11.7917L55.7905 11.9025C55.7052 12.3059 55.5305 12.6582 55.2663 12.9594C55.0049 13.2576 54.6669 13.4906 54.2521 13.6582C53.8402 13.823 53.3643 13.9054 52.8246 13.9054Z" fill="#CECDF1"/>
<path d="M48.7294 7.23208V8.59572H44.7876V7.23208H48.7294ZM45.6825 5.6639H47.4978V11.7662C47.4978 11.9338 47.5234 12.0645 47.5745 12.1582C47.6257 12.2491 47.6967 12.313 47.7876 12.35C47.8813 12.3869 47.9893 12.4054 48.1115 12.4054C48.1967 12.4054 48.2819 12.3983 48.3671 12.3841C48.4524 12.367 48.5177 12.3542 48.5632 12.3457L48.8487 13.6966C48.7578 13.725 48.6299 13.7576 48.4652 13.7946C48.3004 13.8344 48.1001 13.8585 47.8643 13.867C47.4268 13.8841 47.0433 13.8258 46.7137 13.6923C46.387 13.5588 46.1328 13.3514 45.9509 13.0701C45.7691 12.7889 45.6796 12.4338 45.6825 12.0048V5.6639Z" fill="#CECDF1"/>
<path d="M37.6542 16.2321V7.23208H39.4439V8.33151H39.5249C39.6045 8.15537 39.7195 7.9764 39.8701 7.79458C40.0235 7.60992 40.2224 7.45651 40.4667 7.33435C40.7138 7.20935 41.0207 7.14685 41.3871 7.14685C41.8644 7.14685 42.3047 7.27185 42.7082 7.52185C43.1116 7.76901 43.434 8.14259 43.6755 8.64259C43.917 9.13975 44.0377 9.76333 44.0377 10.5133C44.0377 11.2434 43.9198 11.8599 43.684 12.3628C43.451 12.8628 43.1329 13.242 42.7295 13.5005C42.3289 13.7562 41.88 13.8841 41.3829 13.8841C41.0306 13.8841 40.7309 13.8258 40.4837 13.7094C40.2394 13.5929 40.0391 13.4466 39.8829 13.2704C39.7266 13.0915 39.6073 12.9111 39.5249 12.7292H39.4695V16.2321H37.6542ZM39.4312 10.5048C39.4312 10.894 39.4851 11.2335 39.5931 11.5233C39.7011 11.813 39.8573 12.0389 40.0618 12.2008C40.2664 12.3599 40.515 12.4395 40.8076 12.4395C41.103 12.4395 41.353 12.3585 41.5576 12.1966C41.7621 12.0318 41.917 11.8045 42.0221 11.5147C42.13 11.2221 42.184 10.8855 42.184 10.5048C42.184 10.127 42.1314 9.79458 42.0263 9.50765C41.9212 9.22071 41.7664 8.99628 41.5618 8.83435C41.3573 8.67242 41.1059 8.59145 40.8076 8.59145C40.5121 8.59145 40.2621 8.66958 40.0576 8.82583C39.8559 8.98208 39.7011 9.20367 39.5931 9.4906C39.4851 9.77753 39.4312 10.1156 39.4312 10.5048Z" fill="#CECDF1"/>
<path d="M33.4652 13.9054C32.7919 13.9054 32.2123 13.769 31.7265 13.4963C31.2436 13.2207 30.8714 12.8315 30.6101 12.3287C30.3487 11.823 30.218 11.225 30.218 10.5346C30.218 9.86134 30.3487 9.27043 30.6101 8.76191C30.8714 8.25338 31.2393 7.85708 31.7138 7.57299C32.191 7.2889 32.7507 7.14685 33.3927 7.14685C33.8246 7.14685 34.2265 7.21645 34.5987 7.35566C34.9737 7.49202 35.3004 7.69799 35.5788 7.97356C35.8601 8.24912 36.0788 8.59571 36.2351 9.01333C36.3913 9.4281 36.4694 9.9139 36.4694 10.4707V10.9693H30.9424V9.84429H34.7606C34.7606 9.58293 34.7038 9.3514 34.5902 9.14969C34.4765 8.94799 34.3189 8.79032 34.1172 8.67668C33.9183 8.5602 33.6868 8.50196 33.4226 8.50196C33.147 8.50196 32.9027 8.56588 32.6896 8.69373C32.4794 8.81873 32.3146 8.98776 32.1953 9.20083C32.076 9.41105 32.0149 9.64543 32.0121 9.90395V10.9736C32.0121 11.2974 32.0717 11.5772 32.191 11.813C32.3132 12.0488 32.4851 12.2307 32.7067 12.3585C32.9282 12.4863 33.191 12.5503 33.495 12.5503C33.6967 12.5503 33.8814 12.5219 34.049 12.465C34.2166 12.4082 34.3601 12.323 34.4794 12.2094C34.5987 12.0957 34.6896 11.9565 34.7521 11.7917L36.4311 11.9025C36.3459 12.3059 36.1711 12.6582 35.9069 12.9594C35.6456 13.2576 35.3075 13.4906 34.8927 13.6582C34.4808 13.823 34.0049 13.9054 33.4652 13.9054Z" fill="#CECDF1"/>
<path d="M26.3966 13.9054C25.7262 13.9054 25.1495 13.7633 24.6665 13.4792C24.1864 13.1923 23.8171 12.7946 23.5586 12.2861C23.3029 11.7775 23.175 11.1923 23.175 10.5304C23.175 9.85992 23.3043 9.27185 23.5628 8.76617C23.8242 8.25765 24.1949 7.86134 24.675 7.57725C25.1552 7.29032 25.7262 7.14685 26.3881 7.14685C26.9591 7.14685 27.4591 7.25054 27.8881 7.45793C28.3171 7.66532 28.6566 7.95651 28.9066 8.33151C29.1566 8.70651 29.2944 9.14685 29.3199 9.65253H27.6069C27.5586 9.32583 27.4307 9.06304 27.2233 8.86418C27.0188 8.66248 26.7503 8.56162 26.4179 8.56162C26.1367 8.56162 25.891 8.63833 25.6807 8.79174C25.4733 8.94231 25.3114 9.16248 25.1949 9.45225C25.0785 9.74202 25.0202 10.0929 25.0202 10.5048C25.0202 10.9224 25.077 11.2775 25.1907 11.5701C25.3072 11.8628 25.4705 12.0858 25.6807 12.2392C25.891 12.3926 26.1367 12.4693 26.4179 12.4693C26.6253 12.4693 26.8114 12.4267 26.9762 12.3415C27.1438 12.2562 27.2816 12.1326 27.3895 11.9707C27.5003 11.8059 27.5728 11.6085 27.6069 11.3784H29.3199C29.2915 11.8784 29.1552 12.3187 28.9108 12.6994C28.6694 13.0772 28.3356 13.3727 27.9094 13.5858C27.4833 13.7988 26.979 13.9054 26.3966 13.9054Z" fill="#CECDF1"/>
<path d="M19.3537 13.9054C18.6832 13.9054 18.1065 13.7633 17.6236 13.4792C17.1434 13.1923 16.7741 12.7946 16.5156 12.2861C16.2599 11.7775 16.1321 11.1923 16.1321 10.5304C16.1321 9.85992 16.2613 9.27185 16.5199 8.76617C16.7812 8.25765 17.152 7.86134 17.6321 7.57725C18.1122 7.29032 18.6832 7.14685 19.3451 7.14685C19.9162 7.14685 20.4162 7.25054 20.8451 7.45793C21.2741 7.66532 21.6136 7.95651 21.8636 8.33151C22.1136 8.70651 22.2514 9.14685 22.277 9.65253H20.5639C20.5156 9.32583 20.3878 9.06304 20.1804 8.86418C19.9758 8.66248 19.7074 8.56162 19.375 8.56162C19.0937 8.56162 18.848 8.63833 18.6378 8.79174C18.4304 8.94231 18.2684 9.16248 18.152 9.45225C18.0355 9.74202 17.9773 10.0929 17.9773 10.5048C17.9773 10.9224 18.0341 11.2775 18.1477 11.5701C18.2642 11.8628 18.4275 12.0858 18.6378 12.2392C18.848 12.3926 19.0937 12.4693 19.375 12.4693C19.5824 12.4693 19.7684 12.4267 19.9332 12.3415C20.1008 12.2562 20.2386 12.1326 20.3466 11.9707C20.4574 11.8059 20.5298 11.6085 20.5639 11.3784H22.277C22.2486 11.8784 22.1122 12.3187 21.8679 12.6994C21.6264 13.0772 21.2926 13.3727 20.8665 13.5858C20.4403 13.7988 19.9361 13.9054 19.3537 13.9054Z" fill="#CECDF1"/>
<path d="M9.2628 13.7775H7.28552L10.2983 5.05026H12.6761L15.6847 13.7775H13.7074L11.5213 7.04458H11.4531L9.2628 13.7775ZM9.13922 10.3471H13.8097V11.7875H9.13922V10.3471Z" fill="#CECDF1"/>
</g>
<defs>
<clipPath id="clip0_6_8">
<rect width="70" height="20" fill="white"/>
</clipPath>
</defs>
</svg>
